<?xml version="1.0" encoding="UTF-8"?>
<svg id="Layer_1" data-name="Layer 1" xmlns="http://www.w3.org/2000/svg" viewBox="0 0 446.53 155.89">
  <defs>
    <style>
      .cls-1 {
        fill: #fff;
      }
    </style>
  </defs>
  <path class="cls-1" d="m143.2,75.62c-.28-.32-.55-.63-.83-.95-.61-4.55-1.11-9.13-1.92-13.64-.2-1.13-1.33-2.73-2.25-2.9-.9-.16-2.44.99-3.09,1.97-2.9,4.3-5.35,8.91-8.39,13.1-5.44,7.5-10.44,15.44-18.55,20.59-.7.45-1.34,2.2-1.01,2.77.48.84,1.86,1.57,2.86,1.59,1.51.03,3.03-.61,4.54-.96,1.68,3.08,3.13,3.77,5.31,2.33,4-2.63,7.86-5.48,11.92-8.01,1.97-1.23,4.27-1.93,6.91-3.09,0,3.19-.08,5.32.02,7.44.13,2.92.26,5.86.7,8.75.12.81,1.36,1.99,2.1,2.01.81.02,1.71-1.06,2.43-1.8.28-.29.26-.96.23-1.45-.35-6.04-.82-12.07-1.02-18.11-.04-1.35.48-3.13,1.4-4.04,3.44-3.38,7.12-6.54,10.81-9.65.83-.7,2.35-1.46,3.11-1.14.81.34,1.53,1.94,1.52,2.98-.06,7.39-.37,14.77-.48,22.16-.02,1.07.39,2.86,1.03,3.07,1.22.41,3.08.42,4.05-.28,1.86-1.34,3.42-3.18,4.86-5,3.65-4.61,8.45-7.62,13.68-9.99.82-.37,2.34.03,3.13.62.5.37.62,1.98.23,2.62-.51.84-1.62,1.39-2.58,1.87-7.56,3.72-15.39,7.01-20.91,13.83-1.42,1.75-2.42,3.53-1.09,5.69,1.34,2.18,3.4,2.25,5.56,1.48,7.33-2.61,14.12-6.15,19.63-11.76,1.24-1.27,1.87-3.25,3.25-4.24,1.83-1.32,4.09-2.67,6.22-2.77,2.48-.11,1.6,2.61,2.06,4.25.88,3.14,1.7,6.59,5.64,7.37,3.41.67,5.4-1.62,7.06-4.07,1.15-1.7,2.38-1.41,3.87-.75,2.27,1,4.47,2.33,6.85,2.85,5.05,1.11,6.32,1.77,9.9-3.4,1.7-2.46,3.54-4.84,5.39-7.19.36-.46,1.08-.63,1.76-1.01.37,3.22.42,6.16,1.12,8.93.73,2.89,3.93,3.88,6.1,1.84,4.36-4.11,8.58-8.39,12.6-12.83,2.26-2.5,2.95-2.72,4.32.4,2.48,5.64,6.71,9.37,12.24,11.74,5.58,2.4,11.52,1.95,17.39,2.02,2.6.03,5.48-2.11,7.58,1.64.96,1.72,4.04.75,4.26-1.51.35-3.51.32-7.16-.27-10.63-.86-5.05-.55-6.37,4.09-8.58,2.15-1.02,4.49-1.67,6.58-2.79.85-.46,1.28-1.71,1.9-2.61-.99-.44-1.94-1.03-2.98-1.28-.61-.15-1.36.17-2.02.37-2.28.69-4.57,1.37-6.83,2.15-1.66.57-2.84.41-2.79-1.66.08-3.43.18-6.87.46-10.29.13-1.6.39-2.95-1.55-3.69-1.82-.69-3.19-.29-3.99,1.37-.55,1.13-.99,2.46-.98,3.69.04,3.22.23,6.45.59,9.65.36,3.24-1.37,4.54-4.04,5.8-2.22,1.05-4.26,2.83-5.89,4.71-1.34,1.54-.29,3.29,1.29,4.27,1.61,1,2.56-.04,3.66-1.31,1.18-1.36,2.8-2.41,4.4-3.3.46-.26,2.02.33,2.16.8.49,1.6.91,3.38.69,4.99-.12.93-1.46,2.33-2.36,2.42-5.36.56-10.65.49-16.01-.98-7.42-2.02-11.79-6.65-13.91-13.74-1.12-3.75-3.06-5.4-5.37-4.06-1.71.99-3.32,2.28-4.68,3.72-2.9,3.07-5.54,6.38-8.42,9.46-.62.66-1.8.79-2.73,1.17-.15-1.03-.61-2.13-.39-3.07.84-3.56,2.02-7.04,2.79-10.62.19-.9-.36-2.46-1.08-2.93-.75-.49-2.45-.45-3.15.1-1.74,1.37-3.18,3.12-4.66,4.79-4.04,4.52-8.01,9.11-12.1,13.58-.66.72-1.99,1.55-2.76,1.35-5.62-1.45-10.76-3.77-13.5-9.39-.74-1.52-.99-3.41-2.07-4.58-.93-1.01-2.77-1.75-4.1-1.62-.73.07-1.89,2.31-1.73,3.4.3,2,1.57,3.83,2.19,5.82.69,2.24,1.11,4.56,1.65,6.85-.52.16-1.04.32-1.56.49-.4-1.03-1.07-2.04-1.16-3.09-.49-6.16-1.87-7.66-7.91-7.47-2.55.08-3.69-.75-4.6-3.16-1.58-4.17-4.3-5.43-8.39-3.54-4.67,2.16-9,5.06-13.46,7.67-1.23.72-2.4,1.55-3.85,2.5-.34-5.18-.46-9.71-.99-14.2-.37-3.15-1.12-6.28-2.03-9.32-.73-2.41-2.82-2.73-4.58-1.34-3.22,2.53-6.13,5.45-9.24,8.12-1.88,1.62-3.89,3.08-5.85,4.62Z"/>
  <path d="m143.2,75.62c1.95-1.53,3.97-3,5.85-4.62,3.11-2.68,6.02-5.59,9.24-8.12,1.76-1.39,3.85-1.07,4.58,1.34.91,3.04,1.66,6.17,2.03,9.32.53,4.48.65,9.02.99,14.2,1.46-.95,2.62-1.78,3.85-2.5,4.46-2.61,8.79-5.51,13.46-7.67,4.09-1.89,6.81-.63,8.39,3.54.91,2.41,2.05,3.24,4.6,3.16,6.04-.19,7.42,1.3,7.91,7.47.08,1.05.76,2.06,1.16,3.09.52-.16,1.04-.32,1.56-.49-.54-2.29-.95-4.61-1.65-6.85-.61-1.98-1.89-3.81-2.19-5.82-.16-1.09,1-3.32,1.73-3.4,1.33-.14,3.17.6,4.1,1.62,1.08,1.17,1.33,3.06,2.07,4.58,2.74,5.63,7.88,7.94,13.5,9.39.77.2,2.1-.63,2.76-1.35,4.1-4.47,8.06-9.06,12.1-13.58,1.49-1.66,2.93-3.42,4.66-4.79.7-.55,2.4-.59,3.15-.1.72.47,1.28,2.03,1.08,2.93-.77,3.57-1.95,7.06-2.79,10.62-.22.94.24,2.04.39,3.07.92-.38,2.11-.51,2.73-1.17,2.88-3.09,5.53-6.39,8.42-9.46,1.36-1.44,2.97-2.73,4.68-3.72,2.31-1.34,4.25.32,5.37,4.06,2.12,7.09,6.49,11.71,13.91,13.74,5.36,1.46,10.65,1.53,16.01.98.9-.09,2.24-1.49,2.36-2.42.22-1.62-.2-3.39-.69-4.99-.15-.48-1.7-1.06-2.16-.8-1.59.89-3.22,1.94-4.4,3.3-1.1,1.27-2.05,2.31-3.66,1.31-1.58-.98-2.63-2.73-1.29-4.27,1.63-1.88,3.66-3.66,5.89-4.71,2.67-1.26,4.4-2.57,4.04-5.8-.35-3.2-.55-6.43-.59-9.65-.01-1.23.43-2.56.98-3.69.8-1.66,2.17-2.07,3.99-1.37,1.94.74,1.68,2.08,1.55,3.69-.28,3.42-.38,6.86-.46,10.29-.05,2.06,1.13,2.22,2.79,1.66,2.26-.77,4.54-1.46,6.83-2.15.66-.2,1.41-.52,2.02-.37,1.04.25,1.99.84,2.98,1.28-.62.89-1.05,2.15-1.9,2.61-2.09,1.12-4.43,1.77-6.58,2.79-4.64,2.21-4.96,3.53-4.09,8.58.59,3.47.61,7.12.27,10.63-.22,2.26-3.3,3.23-4.26,1.51-2.1-3.75-4.98-1.61-7.58-1.64-5.87-.08-11.8.37-17.39-2.02-5.54-2.37-9.76-6.11-12.24-11.74-1.37-3.11-2.05-2.9-4.32-.4-4.02,4.44-8.24,8.73-12.6,12.83-2.17,2.04-5.38,1.05-6.1-1.84-.7-2.78-.75-5.72-1.12-8.93-.69.38-1.4.55-1.76,1.01-1.85,2.35-3.69,4.73-5.39,7.19-3.58,5.17-4.85,4.51-9.9,3.4-2.38-.52-4.58-1.85-6.85-2.85-1.48-.66-2.72-.95-3.87.75-1.65,2.45-3.64,4.74-7.06,4.07-3.94-.77-4.76-4.23-5.64-7.37-.46-1.63.42-4.36-2.06-4.25-2.13.1-4.39,1.45-6.22,2.77-1.38,1-2.01,2.98-3.25,4.24-5.51,5.61-12.3,9.15-19.63,11.76-2.15.77-4.22.7-5.56-1.48-1.33-2.16-.32-3.94,1.09-5.69,5.52-6.82,13.35-10.11,20.91-13.83.96-.47,2.08-1.03,2.58-1.87.39-.64.26-2.25-.23-2.62-.79-.59-2.31-.99-3.13-.62-5.23,2.37-10.03,5.38-13.68,9.99-1.44,1.82-3,3.66-4.86,5-.97.7-2.84.69-4.05.28-.63-.22-1.04-2-1.03-3.07.11-7.39.41-14.77.48-22.16,0-1.04-.71-2.64-1.52-2.98-.76-.32-2.28.44-3.11,1.14-3.7,3.11-7.37,6.27-10.81,9.65-.92.91-1.44,2.68-1.4,4.04.2,6.04.67,12.08,1.02,18.11.03.49.05,1.16-.23,1.45-.72.74-1.62,1.82-2.43,1.8-.75-.02-1.98-1.2-2.1-2.01-.45-2.88-.57-5.82-.7-8.75-.1-2.12-.02-4.26-.02-7.44-2.64,1.16-4.94,1.86-6.91,3.09-4.06,2.53-7.92,5.38-11.92,8.01-2.19,1.44-3.64.75-5.31-2.33-1.51.35-3.03.98-4.54.96-1.01-.02-2.38-.76-2.86-1.59-.33-.57.31-2.32,1.01-2.77,8.11-5.15,13.11-13.09,18.55-20.59,3.04-4.19,5.49-8.8,8.39-13.1.66-.98,2.19-2.13,3.09-1.97.92.17,2.05,1.77,2.25,2.9.82,4.52,1.31,9.09,1.92,13.64.28.32.55.63.83.95Zm-24.85,16.97c1.38.08,1.87.26,2.14.09,5.08-3.13,10.17-6.23,15.15-9.52.87-.57,1.74-1.91,1.74-2.9,0-4.16-.33-8.32-.55-12.75-.93.28-1.6.27-1.81.58-5.44,7.93-10.84,15.89-16.67,24.49Z"/>
  <path class="cls-1" d="m118.35,92.59c5.84-8.59,11.23-16.56,16.67-24.49.21-.31.88-.3,1.81-.58.22,4.43.55,8.59.55,12.75,0,.99-.87,2.32-1.74,2.9-4.98,3.28-10.07,6.39-15.15,9.52-.27.17-.76-.02-2.14-.09Z"/>
</svg>