<?xml version="1.0" encoding="UTF-8"?>
<svg id="Layer_1" data-name="Layer 1" xmlns="http://www.w3.org/2000/svg" viewBox="0 0 169.1 163.82">
  <defs>
    <style>
      .cls-1 {
        fill: #fff;
      }
    </style>
  </defs>
  <path class="cls-1" d="m38.46,145.79c2.82-.23,6.42.07,9.66-.88,8.58-2.53,17.07-5.44,25.48-8.51,10.03-3.65,19.84-7.94,29.95-11.34,6.55-2.21,13.43-3.54,20.25-4.85,6.02-1.16,12.17-1.67,18.24-2.62,2.15-.34,3.38-1.63,2.9-4.1-.74-3.85-1.14-7.79-2.08-11.59-1.5-6.03-2.59-12.33-5.19-17.89-3.3-7.07-7.91-13.53-12.02-20.22-1.26-2.06-3.2-3.06-5.67-2.9-6.04.39-12.09.64-18.1,1.22-4.72.46-6.05-.28-7.18-4.75-.24-.95-.77-1.83-1.15-2.75-1.64-4.01-3.56-7.93-4.82-12.05-1.67-5.49-3.84-10.6-8-14.66-1.91-1.86-4.13-3.2-6.75-1.43-1.58,1.07-3.27,2.29-4.27,3.85-4.14,6.53-8.47,13.01-11.85,19.93-1.77,3.64-2.23,8.15-2.36,12.29-.12,3.72-.54,4.86-4.46,5.07-2.84.15-5.73.14-8.51.67-3.1.6-6.39,1.21-9.08,2.73-6.15,3.49-8.77,9.96-11.53,15.96-1.57,3.41-3.66,7.43.07,11.24.87.88,1.03,2.6,1.22,3.97.7,5.1,1.01,10.27,1.97,15.31,1.38,7.31,3.16,14.54,4.82,21.79,1.18,5.15,2.87,6.5,8.46,6.5Z"/>
  <path d="m38.46,145.79c-5.59,0-7.28-1.35-8.46-6.5-1.66-7.25-3.44-14.48-4.82-21.79-.95-5.05-1.26-10.21-1.97-15.31-.19-1.37-.36-3.09-1.22-3.97-3.73-3.81-1.64-7.84-.07-11.24,2.76-6,5.38-12.47,11.53-15.96,2.69-1.52,5.98-2.13,9.08-2.73,2.78-.53,5.66-.52,8.51-.67,3.92-.21,4.34-1.34,4.46-5.07.13-4.14.59-8.65,2.36-12.29,3.38-6.93,7.71-13.4,11.85-19.93.99-1.56,2.69-2.78,4.27-3.85,2.62-1.78,4.84-.43,6.75,1.43,4.16,4.06,6.33,9.17,8,14.66,1.25,4.13,3.18,8.05,4.82,12.05.38.92.91,1.8,1.15,2.75,1.13,4.48,2.46,5.21,7.18,4.75,6.02-.58,12.07-.83,18.1-1.22,2.47-.16,4.4.84,5.67,2.9,4.1,6.69,8.71,13.15,12.02,20.22,2.6,5.56,3.69,11.85,5.19,17.89.94,3.8,1.34,7.73,2.08,11.59.47,2.46-.75,3.76-2.9,4.1-6.07.95-12.21,1.46-18.24,2.62-6.81,1.31-13.69,2.65-20.25,4.85-10.11,3.4-19.92,7.69-29.95,11.34-8.41,3.06-16.9,5.97-25.48,8.51-3.23.95-6.84.66-9.66.88Zm42.22-76.16c-.02-.18-.04-.36-.06-.54-5.41.62-10.82,1.26-16.24,1.83-2.22.24-4.66-.19-6.63.61-4.95,2.01-10.1,1.95-15.22,2.14-4.19.15-7.23,2-9.88,5.12-3.9,4.59-4.55,10.22-4.43,15.66.15,6.6,1.28,13.23,2.53,19.74,1.47,7.62,3.39,15.16,5.46,22.64.33,1.19,2.48,2.79,3.67,2.7,8.78-.68,17.25-2.82,25.44-6.12,9.33-3.76,18.63-7.64,28.08-11.07,12.8-4.64,25.88-8.31,39.53-9.58,2.37-.22,4.77-1.44,4.46-4.42-.46-4.51-.96-9.06-2.06-13.44-2.71-10.8-8.88-19.76-16.39-27.84-4.27-.15-8.54.4-12.81.53-2.67.08-4.85.67-6.47,3.12-1.62,2.45-4,2.55-5.8.26-1.56-1.98-3.4-2.32-5.64-2.07-2.51.29-5.03.5-7.54.75Zm-13.86-4.47c.01.08.02.15.03.23,1.99-.28,3.97-.68,5.97-.81,4.34-.29,8.68-.45,13.02-.63,3.89-.17,4.73-1.43,3.33-4.92-.9-2.23-1.69-4.5-2.58-6.74-2.34-5.88-4.53-11.83-7.13-17.59-1.55-3.43-3.58-3.63-5.94-.78-2.56,3.1-5.2,6.25-7.11,9.76-3.04,5.57-5.54,11.42-5.36,18.04.08,2.79,1.23,3.9,3.94,3.56.6-.08,1.22-.08,1.82-.12Z"/>
  <path class="cls-1" d="m80.68,69.63c2.51-.25,5.03-.46,7.54-.75,2.24-.26,4.08.08,5.64,2.07,1.81,2.29,4.18,2.19,5.8-.26,1.62-2.45,3.79-3.04,6.47-3.12,4.27-.12,8.54-.67,12.81-.53,7.51,8.08,13.69,17.04,16.39,27.84,1.1,4.38,1.6,8.94,2.06,13.44.31,2.98-2.09,4.2-4.46,4.42-13.66,1.27-26.73,4.94-39.53,9.58-9.46,3.43-18.75,7.31-28.08,11.07-8.19,3.3-16.66,5.43-25.44,6.12-1.19.09-3.34-1.51-3.67-2.7-2.06-7.48-3.99-15.02-5.46-22.64-1.25-6.51-2.37-13.14-2.53-19.74-.13-5.44.53-11.07,4.43-15.66,2.65-3.12,5.69-4.96,9.88-5.12,5.13-.19,10.27-.13,15.22-2.14,1.97-.8,4.42-.37,6.63-.61,5.42-.58,10.83-1.22,16.24-1.83.02.18.04.36.06.54Z"/>
  <path class="cls-1" d="m66.82,65.16c-.61.04-1.22.04-1.82.12-2.71.34-3.86-.77-3.94-3.56-.18-6.63,2.32-12.47,5.36-18.04,1.91-3.51,4.55-6.66,7.11-9.76,2.36-2.85,4.39-2.66,5.94.78,2.6,5.76,4.79,11.71,7.13,17.59.89,2.23,1.68,4.51,2.58,6.74,1.41,3.5.56,4.75-3.33,4.92-4.34.19-8.69.35-13.02.63-2,.13-3.98.53-5.97.81-.01-.08-.02-.15-.03-.23Z"/>
</svg>