<?xml version="1.0" encoding="UTF-8"?>
<svg id="Layer_1" data-name="Layer 1" xmlns="http://www.w3.org/2000/svg" viewBox="0 0 446.53 155.89">
  <defs>
    <style>
      .cls-1 {
        fill: #fff;
      }
    </style>
  </defs>
  <path class="cls-1" d="m209.31,107.57c2.49-2.19,4.35-4.23,6.58-5.71,6.61-4.38,10.77-10.52,13.63-17.74,1.24-3.13.8-6.58-1.31-8.43-3.25-2.85-7.59-4.25-12.03-2.16-3.1,1.46-6.49,2.62-8.09,6.16-.9,1.98-2.13,3.81-3.02,5.79-1.43,3.16-3.13,5.97-6.24,7.85-5.12,3.09-10.08,6.42-15.17,9.55-2.34,1.44-5.56.9-7.31-1.26-4.28-5.29-4.67-11.35-2.89-17.61.51-1.8.56-3.06-1.04-4.09-1.82-1.16-3-.14-3.99,1.29-1.87,2.71-3.44,5.69-5.61,8.12-5.31,5.94-10.91,11.64-18.83,14.16-4.72,1.5-9.22-.59-11.09-4.72-1.89-4.17.95-6.6,3.12-9.26,5.55-6.82,10.04-14.22,12.06-22.84.34-1.46-.47-3.7-1.53-4.84-1.2-1.28-3.28-1.99-5.15-.54-1.59,1.23-3.45,2.25-4.68,3.77-5.49,6.85-7.86,14.95-8.53,23.54-.24,3.09-1.35,5.59-3.6,7.32-4.59,3.52-9.24,7.05-14.25,9.91-4.31,2.46-9.12,4.53-14.21,1.63-7.01-3.99-8.61-12.71-6.39-19.9,1.32-4.27,4.01-8.24,6.65-11.95,3.01-4.22,7.17-7.28,12.26-8.82,3.43-1.04,5.88.49,6.68,3.95.47,2.02.9,4.13,1.86,5.92.47.87,2.53,1.82,3.12,1.47,1.03-.62,2.24-2.35,2.04-3.36-.63-3.28-1.67-6.53-2.92-9.65-1.44-3.6-5.67-5.86-9.15-4.5-4.14,1.62-8.53,3.37-11.85,6.19-9.74,8.27-15.24,18.78-13.62,31.96.59,4.83,2.74,9.26,6.69,12.31,5.71,4.4,11.98,3.93,18.12,1.01,5.53-2.62,10.64-5.96,15.11-10.22,1.99-1.89,3.45-1.64,4.4,1.15.98,2.88,2.89,5.15,5.87,6.04,5.41,1.62,10.91,1.55,15.53-1.87,4.41-3.27,8.23-7.33,12.38-10.97,1.12-.98,2.47-1.69,3.95-2.69,1.42,5.93,3.71,10.61,7.77,14.34,3,2.76,5.55,3.57,8.99,1.7,4.03-2.18,7.79-4.85,11.68-7.29,1.48-.93,2.99-1.81,4.49-2.71.55,1.84,1.39,3.66,1.58,5.53.54,5.3,4.34,9.71,8.08,10.32,5.6.92,9.94-1.94,13.99-4.83,4.29-3.06,7.94-7.01,11.95-10.49,1.42-1.23,3.06-2.2,4.59-3.29.22.19.43.39.65.58-.22.82-.34,1.69-.68,2.45-.85,1.92-2.02,3.73-2.64,5.72-.33,1.05-.2,2.8.47,3.46.67.65,2.38.64,3.46.34.91-.26,1.69-1.27,2.35-2.1,3.05-3.85,5.91-7.84,9.09-11.57,1.33-1.55,3.28-2.57,4.96-3.83.21.2.42.4.62.6-.22.93-.47,1.86-.66,2.79-.41,2.04-1.26,4.12-1.11,6.12.57,7.56,4.84,11.13,11.88,8.12,6.25-2.67,11.82-6.93,17.61-10.62,2.08-1.33,3.93-3.04,6.46-5.04,0,1.81-.09,2.63.01,3.42.64,5.11,1.45,9.24,8.27,8.98.46-.02,1.21.1,1.34.38,1.31,2.82,4.01,3.07,6.52,3.72,5.51,1.44,10.96.89,16.35-.55,2.26-.6,4.36-1.81,6.63-2.29,3.41-.73,6.97-.82,10.35-1.63,6.28-1.51,12.42-3.63,18.73-4.96,4.78-1.01,8.89-2.81,12.32-6.28,1.7-1.72,2.33-4.35.88-5.39-1.8-1.28-3.31-.66-5.12.68-3.07,2.28-6.35,4.56-9.91,5.83-5.31,1.9-10.89,3.13-16.44,4.25-3.28.66-6.72.57-9.98.8-.33-2.92-.53-5.33-.9-7.71-.54-3.45-1.02-6.92-1.91-10.28-.29-1.11-1.63-2.25-2.76-2.73-.68-.29-2.14.4-2.83,1.08-2.89,2.88-5.31,6.32-8.48,8.82-4.27,3.37-9.02,6.14-13.67,9-2.33,1.42-3.55-.47-3.19-2.22.86-4.14,2.15-8.21,3.65-12.17.38-1.01,2.09-1.9,3.32-2.14,3.32-.63,6.72-.88,10.08-1.3,1.08-.13,2.27-.1,3.19-.58.89-.46,2.21-1.63,2.08-2.21-.22-1.02-1.27-2.05-2.24-2.64-.87-.53-2.1-.64-3.17-.63-2.7.04-5.4.25-8.32.41-.07-.43-.08-.93-.25-1.37-.62-1.59-.45-3.71-2.97-3.98-2.67-.28-2.56,2.08-3.51,3.44-1.34,1.91-2.77,3.75-3.98,5.74-.74,1.22-1.12,2.66-1.67,4-.44,1.06-.63,2.39-1.4,3.11-2.26,2.14-4.79,3.99-7.14,6.03-5.57,4.83-11.66,8.77-18.79,10.8-1.28.37-3.51.4-4.06-.34-.92-1.23-1.4-3.34-1.06-4.84,1-4.35,2.66-8.55,3.72-12.89.32-1.32-.12-3.9-.83-4.15-1.35-.48-3.52-.2-4.69.66-3.39,2.5-6.44,5.46-9.64,8.21-.48.41-1.05.71-2.09,1.4.08-1.7.36-2.87.13-3.92-.33-1.48-1.04-2.87-1.58-4.31-1.34.52-3,.72-3.95,1.64-3.17,3.05-5.85,6.63-9.15,9.52-5.04,4.42-10.31,8.61-15.74,12.54-2.42,1.75-5.44,2.99-9.28.73Z"/>
  <path class="cls-1" d="m186.16,57.44c-.59.7-1.9,1.59-2.19,2.73-.49,1.93,3.39,5.98,5.34,5.56,1.09-.23,2.43-1.41,2.79-2.45.54-1.58-3.55-5.76-5.93-5.84Z"/>
  <path d="m209.31,107.57c3.84,2.26,6.86,1.02,9.28-.73,5.43-3.93,10.7-8.12,15.74-12.54,3.3-2.89,5.98-6.47,9.15-9.52.96-.92,2.61-1.11,3.95-1.64.55,1.43,1.26,2.83,1.58,4.31.23,1.05-.05,2.22-.13,3.92,1.04-.69,1.61-.99,2.09-1.4,3.2-2.76,6.25-5.71,9.64-8.21,1.17-.86,3.34-1.14,4.69-.66.72.26,1.16,2.84.83,4.15-1.06,4.34-2.72,8.54-3.72,12.89-.35,1.5.14,3.61,1.06,4.84.55.74,2.78.71,4.06.34,7.14-2.04,13.23-5.98,18.79-10.8,2.36-2.04,4.88-3.9,7.14-6.03.76-.72.96-2.05,1.4-3.11.55-1.34.93-2.78,1.67-4,1.2-1.99,2.64-3.83,3.98-5.74.95-1.36.84-3.72,3.51-3.44,2.52.27,2.35,2.39,2.97,3.98.17.44.17.94.25,1.37,2.92-.16,5.62-.37,8.32-.41,1.07-.02,2.3.1,3.17.63.97.59,2.02,1.63,2.24,2.64.13.58-1.19,1.75-2.08,2.21-.92.48-2.11.44-3.19.58-3.36.42-6.76.66-10.08,1.3-1.23.24-2.94,1.13-3.32,2.14-1.5,3.96-2.79,8.03-3.65,12.17-.36,1.75.87,3.64,3.19,2.22,4.65-2.85,9.4-5.63,13.67-9,3.17-2.5,5.59-5.93,8.48-8.82.68-.68,2.14-1.37,2.83-1.08,1.13.48,2.47,1.62,2.76,2.73.89,3.36,1.37,6.83,1.91,10.28.37,2.38.57,4.79.9,7.71,3.27-.24,6.7-.14,9.98-.8,5.55-1.12,11.13-2.35,16.44-4.25,3.55-1.27,6.84-3.55,9.91-5.83,1.81-1.34,3.32-1.97,5.12-.68,1.45,1.03.81,3.67-.88,5.39-3.43,3.47-7.54,5.27-12.32,6.28-6.31,1.33-12.45,3.45-18.73,4.96-3.38.81-6.94.9-10.35,1.63-2.27.49-4.38,1.69-6.63,2.29-5.39,1.44-10.84,1.99-16.35.55-2.51-.66-5.21-.91-6.52-3.72-.13-.28-.88-.39-1.34-.38-6.82.26-7.64-3.87-8.27-8.98-.1-.79-.01-1.61-.01-3.42-2.54,2-4.38,3.71-6.46,5.04-5.79,3.69-11.37,7.95-17.61,10.62-7.04,3.01-11.32-.56-11.88-8.12-.15-2,.69-4.08,1.11-6.12.19-.94.44-1.86.66-2.79-.21-.2-.42-.4-.62-.6-1.67,1.26-3.63,2.27-4.96,3.83-3.18,3.73-6.04,7.73-9.09,11.57-.65.83-1.44,1.84-2.35,2.1-1.09.31-2.8.32-3.46-.34-.68-.66-.8-2.41-.47-3.46.62-1.98,1.78-3.8,2.64-5.72.34-.77.46-1.63.68-2.45-.22-.19-.43-.39-.65-.58-1.54,1.09-3.18,2.06-4.59,3.29-4.01,3.48-7.65,7.43-11.95,10.49-4.05,2.89-8.39,5.75-13.99,4.83-3.74-.62-7.54-5.02-8.08-10.32-.19-1.88-1.04-3.69-1.58-5.53-1.5.9-3.01,1.78-4.49,2.71-3.89,2.44-7.65,5.11-11.68,7.29-3.43,1.86-5.98,1.06-8.99-1.7-4.06-3.73-6.35-8.41-7.77-14.34-1.49,1-2.84,1.71-3.95,2.69-4.15,3.64-7.96,7.7-12.38,10.97-4.62,3.42-10.12,3.49-15.53,1.87-2.98-.89-4.88-3.16-5.87-6.04-.95-2.78-2.41-3.04-4.4-1.15-4.47,4.26-9.58,7.59-15.11,10.22-6.14,2.91-12.41,3.39-18.12-1.01-3.95-3.05-6.1-7.48-6.69-12.31-1.61-13.19,3.88-23.69,13.62-31.96,3.32-2.82,7.71-4.57,11.85-6.19,3.48-1.36,7.71.9,9.15,4.5,1.25,3.11,2.28,6.36,2.92,9.65.19,1.01-1.01,2.74-2.04,3.36-.59.35-2.65-.61-3.12-1.47-.96-1.79-1.4-3.9-1.86-5.92-.8-3.46-3.25-4.99-6.68-3.95-5.09,1.54-9.25,4.6-12.26,8.82-2.64,3.7-5.33,7.68-6.65,11.95-2.21,7.19-.61,15.91,6.39,19.9,5.09,2.9,9.9.83,14.21-1.63,5.01-2.86,9.66-6.39,14.25-9.91,2.25-1.73,3.36-4.23,3.6-7.32.67-8.58,3.04-16.69,8.53-23.54,1.22-1.53,3.09-2.55,4.68-3.77,1.88-1.45,3.96-.74,5.15.54,1.06,1.14,1.87,3.38,1.53,4.84-2.01,8.62-6.51,16.02-12.06,22.84-2.17,2.66-5.01,5.09-3.12,9.26,1.87,4.13,6.37,6.22,11.09,4.72,7.91-2.51,13.51-8.22,18.83-14.16,2.18-2.43,3.75-5.41,5.61-8.12.99-1.43,2.17-2.46,3.99-1.29,1.6,1.02,1.55,2.29,1.04,4.09-1.78,6.26-1.39,12.32,2.89,17.61,1.75,2.16,4.97,2.71,7.31,1.26,5.09-3.13,10.05-6.47,15.17-9.55,3.11-1.88,4.81-4.69,6.24-7.85.9-1.98,2.12-3.81,3.02-5.79,1.61-3.54,4.99-4.7,8.09-6.16,4.44-2.09,8.78-.69,12.03,2.16,2.11,1.85,2.55,5.3,1.31,8.43-2.86,7.22-7.02,13.36-13.63,17.74-2.23,1.48-4.09,3.52-6.58,5.71Zm116.1-18.63c-6.54,5.12-12.43,9.73-18.31,14.34,2.95.45,5.7.2,8.45-.03,2.71-.23,5.45-.31,8.13-.74,1.62-.26,2.54-1.35,2.36-3.26-.3-3.08-.39-6.18-.63-10.3Zm-114.91,7c1.62-.14,2.41,0,2.96-.3,4.95-2.7,8.09-7.03,10.22-12.08.4-.94.14-2.85-.56-3.45-2.32-1.99-5.08-1.44-7.5-.06-.92.53-1.34,1.93-1.98,2.94-.04.07.03.2.02.3-.2,1.67-.24,3.39-.66,5-.64,2.42-1.55,4.78-2.5,7.65Zm-67.83-25.77c-.43-.19-.87-.38-1.3-.57-4.46,3.45-5.79,8.41-6.7,13.58.32.16.63.32.95.48,2.35-4.5,4.7-8.99,7.05-13.49Z"/>
  <path d="m186.16,57.44c2.39.08,6.47,4.26,5.93,5.84-.36,1.05-1.7,2.22-2.79,2.45-1.95.42-5.83-3.63-5.34-5.56.29-1.15,1.6-2.03,2.19-2.73Z"/>
  <path class="cls-1" d="m325.41,88.93c.24,4.13.33,7.23.63,10.3.18,1.91-.75,3.01-2.36,3.26-2.68.42-5.42.5-8.13.74-2.75.24-5.49.48-8.45.03,5.88-4.61,11.77-9.21,18.31-14.34Z"/>
  <path class="cls-1" d="m210.51,95.93c.96-2.87,1.87-5.23,2.5-7.65.42-1.62.46-3.33.66-5,.01-.1-.06-.23-.02-.3.64-1.01,1.06-2.41,1.98-2.94,2.42-1.38,5.18-1.93,7.5.06.7.6.96,2.51.56,3.45-2.14,5.05-5.27,9.38-10.22,12.08-.55.3-1.34.15-2.96.3Z"/>
  <path class="cls-1" d="m142.68,70.16c-2.35,4.5-4.7,8.99-7.05,13.49-.32-.16-.63-.32-.95-.48.91-5.17,2.24-10.13,6.7-13.58.43.19.87.38,1.3.57Z"/>
</svg>