<?xml version="1.0" encoding="UTF-8"?>
<svg id="Layer_1" data-name="Layer 1" xmlns="http://www.w3.org/2000/svg" viewBox="0 0 446.53 155.89">
  <defs>
    <style>
      .cls-1 {
        fill: #fff;
      }
    </style>
  </defs>
  <path class="cls-1" d="m136.95,79.44c-3.63-1.11-4.67-.74-7.31,1.66-3.94,3.59-7.78,7.37-12.09,10.47-6.84,4.92-14.51,8.26-22.73,10.28-9.01,2.22-16.37-3.36-15.68-12.07.66-8.46,5.26-15.08,10.93-20.82,4.24-4.3,9.22-7.91,15.22-9.65,1.25-.36,2.59-.43,3.88-.64.01,1.32.05,2.65.04,3.97-.03,2.85-.19,5.7-.06,8.54.03.53,1.13,1.31,1.82,1.41.46.06,1.37-.79,1.55-1.39.97-3.33,2.12-6.68,2.51-10.1.25-2.17-.31-4.64-1.18-6.69-1.37-3.22-4.65-3.74-8.74-1.75-9.92,4.82-17.94,12.11-24.31,20.83-4.2,5.75-7.96,12.37-6.55,20.24,1.92,10.76,10.73,16.13,20.47,14.1,8.71-1.82,16.75-5.74,24.04-10.94,2.97-2.12,5.78-4.47,8.79-6.81,1.05,2.97,1.7,5.6,2.88,7.97,2.25,4.49,6.49,5.99,9.81,3.27,2.71-2.21,2.8-5.79,2.21-8.93-.87-4.61-.49-9.05.94-13.37.48-1.46,1.96-3.07,3.38-3.65,2.73-1.11,3.21,1.76,3.65,3.29,1.5,5.26,2.51,10.65,3.91,15.94.31,1.16,1.22,2.58,2.23,3.04,1.66.75,2.76-.41,3.83-1.92,2.38-3.35,5.04-6.5,7.77-9.58.61-.69,1.94-.75,2.94-1.11.3.91.58,1.82.89,2.73,1.22,3.55,2.18,7.21,3.75,10.6,1.21,2.62,3.83,4.07,6.74,3.6,3.4-.54,7.1-1.01,9.98-2.69,4.64-2.71,8.7-6.41,13.04-9.64.6-.45,1.47-1.01,2.04-.86.5.13,1,1.18,1.06,1.86.39,4.71,2.18,8.82,4.91,12.62,2.2,3.07,4.61,3.79,8.07,2.41,1.52-.61,3.2-.85,4.83-1.16,1.27-.24,2.7-.03,3.82-.55,4.14-1.92,8.26-3.91,12.23-6.17,2.81-1.6,5.36-3.68,8.18-5.65.37.81.65,1.23.76,1.69,2.36,9.54,11.81,12.18,18.81,6.44,2.44-2,5.01-3.82,7.93-6.04-.03,3.87,1.33,6.64,4.59,7.07,3.81.5,7.97.89,11.59-.09,14.96-4.05,29.18-10.04,42.81-17.45,1.94-1.05,3.97-1.93,6.28-3.05.33,2.77,1.3,5.11.57,6.63-.65,1.35-3.21,1.78-4.9,2.64-2.16,1.1-3.11,4.11-1.33,5.51,1.06.83,3.26.57,4.86.28,1.58-.29,2.74-1,3.53,1.23,2.14,6.08,4.39,12.12,6.84,18.08.72,1.76,2.42,3.07,4.6,2.24,2.28-.87,2.7-2.74,1.9-4.89-.41-1.11-1.07-2.13-1.57-3.2-1.56-3.32-3.23-6.6-4.59-10.01-1.14-2.84-.2-4.42,2.68-5.08,1.35-.31,2.78-.32,4.13-.65,2.11-.52,4.32-.94,6.22-1.91.87-.45,1.6-2.18,1.48-3.22-.09-.81-1.58-2.02-2.5-2.06-3.85-.18-7.74-.26-11.57.14-3.22.34-4.03.04-3.97-3.3.05-2.51.58-5.02.45-7.51-.14-2.87-1.88-3.65-4.34-2.19-1.55.91-2.93,2.15-4.54,2.9-10.32,4.79-20.63,9.59-31.04,14.19-6.79,3-13.88,5.14-21.37,5.36-1.48.04-2.98-.68-4.48-1.04,1.01-1.27,1.84-2.77,3.07-3.76,5.1-4.1,10.98-6.7,17.18-8.76,1.1-.36,2.23-2.21,2.38-3.49.21-1.83-.38-3.72-2.79-4.29-4.05-.97-7.9.24-11.08,2.16-6.4,3.85-12.37,8.41-18.48,12.73-3.02,2.14-5.73,4.84-8.99,6.49-4.81,2.45-9.09-.89-8.88-5.6.09-2.14.78-4.46-1.51-6.09-.26-.19-.05-1.09-.02-1.65.08-1.35.78-3.43.18-3.91-1.6-1.3-2.97-3.57-5.89-2.37-3.2,1.31-6.54,2.59-9.93,3.06-7.84,1.11-15.75,1.75-23.64,2.5-1.01.1-2.06-.27-3.64-.51,1.59-2.71,2.86-4.94,4.2-7.14,2.51-4.11,4.25-8.47,3.52-13.36-.22-1.47-1.12-3.38-2.29-4.02-.97-.53-3,.21-4.19.96-1.11.7-1.93,2.07-2.55,3.31-2.44,4.89-3.33,10.17-3.76,15.58-.14,1.73-.42,3.85-1.48,5.05-5.93,6.67-12.54,12.49-21.76,14.16-2.11.38-4.24.04-4.79-2.44-.96-4.37-1.9-8.77-2.39-13.21-.51-4.58-2.39-5.91-6.2-3.33-3.03,2.04-5.63,4.7-8.46,7.04-.97.8-2.06,1.46-3.1,2.18-.62-1.17-1.37-2.28-1.82-3.51-1.19-3.26-1.99-6.69-3.42-9.83-2.05-4.5-5.95-5.33-10.15-2.71-3.5,2.18-5.55,5.36-6.82,9.39Z"/>
  <path d="m136.95,79.44c1.27-4.03,3.32-7.21,6.82-9.39,4.2-2.62,8.1-1.78,10.15,2.71,1.43,3.14,2.23,6.57,3.42,9.83.45,1.23,1.21,2.35,1.82,3.51,1.04-.72,2.13-1.38,3.1-2.18,2.83-2.34,5.44-5,8.46-7.04,3.81-2.57,5.69-1.24,6.2,3.33.49,4.44,1.42,8.84,2.39,13.21.55,2.48,2.68,2.82,4.79,2.44,9.22-1.66,15.83-7.48,21.76-14.16,1.06-1.19,1.34-3.31,1.48-5.05.43-5.41,1.33-10.68,3.76-15.58.62-1.24,1.44-2.61,2.55-3.31,1.19-.75,3.22-1.49,4.19-.96,1.17.64,2.07,2.54,2.29,4.02.73,4.89-1.02,9.25-3.52,13.36-1.34,2.2-2.61,4.43-4.2,7.14,1.58.23,2.63.6,3.64.51,7.89-.75,15.8-1.39,23.64-2.5,3.39-.48,6.73-1.75,9.93-3.06,2.92-1.2,4.29,1.08,5.89,2.37.6.49-.1,2.56-.18,3.91-.04.57-.25,1.46.02,1.65,2.29,1.63,1.6,3.95,1.51,6.09-.21,4.72,4.07,8.06,8.88,5.6,3.25-1.66,5.96-4.36,8.99-6.49,6.11-4.32,12.09-8.87,18.48-12.73,3.18-1.92,7.02-3.13,11.08-2.16,2.41.58,3,2.46,2.79,4.29-.15,1.28-1.28,3.12-2.38,3.49-6.2,2.06-12.07,4.66-17.18,8.76-1.23.99-2.06,2.49-3.07,3.76,1.49.37,3,1.09,4.48,1.04,7.5-.22,14.58-2.36,21.37-5.36,10.4-4.6,20.72-9.4,31.04-14.19,1.61-.75,2.99-1.99,4.54-2.9,2.46-1.45,4.2-.68,4.34,2.19.12,2.49-.41,5-.45,7.51-.06,3.34.74,3.64,3.97,3.3,3.82-.4,7.72-.33,11.57-.14.92.04,2.41,1.25,2.5,2.06.12,1.04-.61,2.77-1.48,3.22-1.9.98-4.11,1.39-6.22,1.91-1.35.33-2.77.33-4.13.65-2.88.67-3.82,2.25-2.68,5.08,1.36,3.4,3.04,6.68,4.59,10.01.5,1.08,1.16,2.09,1.57,3.2.8,2.14.38,4.01-1.9,4.89-2.18.84-3.88-.48-4.6-2.24-2.45-5.96-4.7-12.01-6.84-18.08-.78-2.23-1.95-1.52-3.53-1.23-1.59.29-3.79.56-4.86-.28-1.78-1.4-.82-4.41,1.33-5.51,1.7-.86,4.25-1.29,4.9-2.64.73-1.52-.25-3.86-.57-6.63-2.31,1.12-4.35,1.99-6.28,3.05-13.62,7.4-27.85,13.4-42.81,17.45-3.62.98-7.78.6-11.59.09-3.26-.43-4.62-3.2-4.59-7.07-2.92,2.22-5.5,4.04-7.93,6.04-7.01,5.74-16.46,3.1-18.81-6.44-.11-.46-.39-.88-.76-1.69-2.83,1.98-5.37,4.05-8.18,5.65-3.96,2.26-8.09,4.25-12.23,6.17-1.12.52-2.55.31-3.82.55-1.63.31-3.3.55-4.83,1.16-3.46,1.38-5.87.66-8.07-2.41-2.73-3.81-4.52-7.92-4.91-12.62-.06-.68-.56-1.72-1.06-1.86-.57-.15-1.44.41-2.04.86-4.34,3.24-8.4,6.93-13.04,9.64-2.88,1.68-6.58,2.15-9.98,2.69-2.92.46-5.53-.99-6.74-3.6-1.57-3.38-2.54-7.05-3.75-10.6-.31-.9-.59-1.82-.89-2.73-1,.35-2.32.41-2.94,1.11-2.72,3.08-5.39,6.23-7.77,9.58-1.07,1.51-2.17,2.67-3.83,1.92-1.01-.46-1.92-1.88-2.23-3.04-1.4-5.29-2.41-10.69-3.91-15.94-.44-1.53-.92-4.39-3.65-3.29-1.42.57-2.9,2.19-3.38,3.65-1.43,4.32-1.81,8.76-.94,13.37.59,3.14.51,6.72-2.21,8.93-3.33,2.71-7.56,1.22-9.81-3.27-1.18-2.36-1.83-4.99-2.88-7.97-3,2.34-5.81,4.69-8.79,6.81-7.29,5.21-15.33,9.12-24.04,10.94-9.74,2.04-18.55-3.34-20.47-14.1-1.41-7.87,2.35-14.49,6.55-20.24,6.37-8.72,14.39-16.01,24.31-20.83,4.09-1.99,7.37-1.47,8.74,1.75.87,2.05,1.43,4.52,1.18,6.69-.4,3.42-1.54,6.76-2.51,10.1-.17.6-1.09,1.45-1.55,1.39-.69-.09-1.8-.88-1.82-1.41-.13-2.84.02-5.69.06-8.54.02-1.32-.02-2.64-.04-3.97-1.3.21-2.63.28-3.88.64-5.99,1.74-10.98,5.35-15.22,9.65-5.67,5.74-10.26,12.35-10.93,20.82-.68,8.71,6.67,14.29,15.68,12.07,8.22-2.02,15.89-5.36,22.73-10.28,4.31-3.1,8.15-6.88,12.09-10.47,2.64-2.4,3.67-2.78,7.31-1.66Zm93.63,7.14c-.91-.18-1.6-.5-2.21-.39-3.13.54-6.24,1.14-9.34,1.81-3.36.73-4.4,2.4-3.58,5.66.24.95.68,1.86,1.03,2.79,1.09,2.96,2.97,3.68,5.09,1.39,3.14-3.39,5.82-7.21,9.02-11.25Zm21.51-1.32c-.1-.35-.21-.69-.31-1.04-3.55.63-7.17.99-10.62,1.95-4.9,1.36-7.76,5.56-11.16,8.93-.38.38-.28,1.23-.4,1.86.59.1,1.32.48,1.76.27,2.66-1.29,5.31-2.61,7.86-4.11,4.34-2.55,8.59-5.24,12.89-7.87Zm-116.08-.98c-2.49,2.53-2.75,7.28,0,9.52v-9.52Z"/>
  <path class="cls-1" d="m230.59,86.57c-3.2,4.04-5.88,7.85-9.02,11.25-2.12,2.29-4,1.57-5.09-1.39-.34-.93-.79-1.83-1.03-2.79-.81-3.26.23-4.93,3.58-5.66,3.1-.67,6.22-1.27,9.34-1.81.61-.11,1.3.22,2.21.39Z"/>
  <path class="cls-1" d="m252.1,85.25c-4.29,2.63-8.55,5.32-12.89,7.87-2.55,1.5-5.2,2.82-7.86,4.11-.44.21-1.16-.16-1.76-.27.12-.63.02-1.49.4-1.86,3.4-3.38,6.27-7.57,11.16-8.93,3.45-.96,7.07-1.32,10.62-1.95.1.35.21.69.31,1.04Z"/>
  <path class="cls-1" d="m136.02,84.28v9.52c-2.75-2.24-2.49-6.99,0-9.52Z"/>
</svg>