<?xml version="1.0" encoding="UTF-8"?>
<svg id="Layer_1" data-name="Layer 1" xmlns="http://www.w3.org/2000/svg" viewBox="0 0 446.53 155.89">
  <defs>
    <style>
      .cls-1 {
        fill: #fff;
      }
    </style>
  </defs>
  <path class="cls-1" d="m141.61,99.54c-.94,3.38-2.05,6.44-2.55,9.59-.19,1.24.98,2.7,1.53,4.05,1.41-.58,3.79-.88,4.05-1.8,1.14-3.93,2.37-8.08,2.17-12.07-.14-2.84.79-3.64,2.84-4.32,1.91-.64,3.83-1.27,5.8-1.69,5.3-1.15,10.62-2.21,15.94-3.27,2.54-.5,3.04.94,3.12,3.13.14,3.83.27,7.7.92,11.46.45,2.59,1.59,5.13,2.8,7.49.34.67,2.55,1.22,3.01.81.89-.79,1.42-2.26,1.59-3.51.12-.88-.78-1.85-.92-2.82-.66-4.66-1.35-9.31-1.79-13.99-.53-5.65-.42-5.66,5.79-5.65,4.14,0,4.09,0,3.14,3.83-.89,3.61-.19,6.9,2.66,9.42,3.13,2.76,6.76,4.26,10.91,2.64,4.63-1.81,9.57-11.62,7.26-16.77-.38-.84,0-2.01.03-3.03.95.11,2,0,2.83.37,3.62,1.63,5.6,9.34,4.09,14.28-.41,1.34.03,3.09.55,4.47.19.5,2.22.98,2.61.62,1.16-1.08,2.1-2.51,2.78-3.96.58-1.23.38-2.87,1.06-4,2.12-3.51,4.4-6.92,6.81-10.24.96-1.32,2.88-.77,3.21.77.7,3.23,1.09,6.55,2.08,9.69.56,1.76,1.8,4.16,3.2,4.55,1.24.34,3.37-1.48,4.69-2.77,2.24-2.19,4.11-4.75,6.19-7.11,1.85-2.09,2.75-1.95,3.94.49,4.04,8.28,13.58,11.5,21.98,7.56.87-.41,2.55-.48,3.1.06,3.68,3.64,8.49,4.63,13.17,5.68,3,.67,6.24.8,9.3.47,1.92-.21,4.43-1.25,4.09-4.01-.34-2.75-2.6-2.57-4.73-2.44-4.78.28-9.48.06-14.05-1.69-3.4-1.3-3.76-2.26-1.27-4.74,1.95-1.94,4.01-3.77,5.79-5.85,1.95-2.29,3.87-4.67,5.38-7.25,2.45-4.17,0-8.21-4.87-7.85-2.64.19-5.3,1.19-7.77,2.25-5.62,2.41-10.8,5.58-11.96,12.19-.42,2.38.56,5,.94,7.83-3.44,1.51-7.46,1.18-10.82-.8-3.81-2.24-4.93-7.76-3.15-11.93.76-1.78.54-3.19-.97-4.29-1.68-1.23-3.03-.48-4.19.93-3.07,3.75-6.13,7.52-9.27,11.2-.68.8-1.71,1.31-2.58,1.95-.59-.84-1.38-1.61-1.73-2.54-.53-1.39-.82-2.89-1.09-4.36-.8-4.38-3.93-6.51-7.93-4.62-2.63,1.24-4.87,3.51-6.95,5.64-2.15,2.2-2.09,2.1-3.81-.53-1.42-2.17-3.41-4.8-5.64-5.41-3.3-.89-7.11-.6-10.58-.03-6.3,1.03-12.52,2.6-18.76,3.99-4.73,1.06-6.13-.76-5.37-5.56.71-4.46.48-9.07.51-13.62,0-.78-.65-1.76-1.3-2.29-.71-.57-2.16-1.27-2.57-.96-.96.71-2.06,1.98-2.1,3.07-.27,6.25-.25,12.51-.33,18.76-.02,1.99-.85,3.03-2.96,3.51-6.85,1.54-13.68,3.23-20.47,5.04-4.26,1.14-4.7.92-4.77-3.59-.02-1.12,0-2.24,0-3.36q.01-5.97,5.87-7.21c.39-.08.74-.31,1.12-.44,6.6-2.32,11.91-6.25,15.47-12.37,1.6-2.74,1.42-5.65-.26-8.05-1.64-2.34-4.27-3.33-7.25-2.41-8.97,2.75-15.7,7.73-17.72,17.53-.12.58-.94,1.19-1.58,1.45-.61.25-1.4.07-2.12.07-5.7,0-11.4,0-17.1,0-2.24,0-3.63,1.2-3.43,3.31.19,1.93,1.59,2.4,3.72,2.3,6.15-.28,12.32-.1,18.5-.1.09.82.21,1.24.16,1.62-.68,4.35-2.12,8.66-.24,13.11.17.39-1.05,1.79-1.86,2.1-2.71,1.03-5.6,1.61-8.27,2.72-1.13.47-2.69,1.91-2.62,2.8.09,1.18,1.38,2.63,2.54,3.25.79.43,2.47-.02,3.33-.65,2.09-1.51,4.04-3.04,7.07-2.08Z"/>
  <path d="m141.61,99.54c-3.03-.96-4.98.57-7.07,2.08-.87.63-2.54,1.08-3.33.65-1.16-.63-2.45-2.07-2.54-3.25-.07-.89,1.49-2.33,2.62-2.8,2.67-1.12,5.56-1.69,8.27-2.72.81-.31,2.03-1.7,1.86-2.1-1.89-4.45-.44-8.76.24-13.11.06-.38-.07-.8-.16-1.62-6.17,0-12.35-.18-18.5.1-2.13.1-3.54-.37-3.72-2.3-.2-2.12,1.19-3.32,3.43-3.31,5.7,0,11.4,0,17.1,0,.71,0,1.5.18,2.12-.07.63-.26,1.46-.86,1.58-1.45,2.02-9.8,8.75-14.79,17.72-17.53,2.99-.91,5.62.08,7.25,2.41,1.68,2.4,1.86,5.31.26,8.05-3.56,6.12-8.87,10.06-15.47,12.37-.38.13-.74.36-1.12.44q-5.85,1.24-5.87,7.21c0,1.12-.01,2.24,0,3.36.07,4.51.51,4.73,4.77,3.59,6.79-1.81,13.61-3.5,20.47-5.04,2.11-.47,2.93-1.52,2.96-3.51.07-6.26.06-12.52.33-18.76.05-1.09,1.14-2.35,2.1-3.07.42-.31,1.87.38,2.57.96.65.53,1.3,1.51,1.3,2.29-.02,4.55.21,9.16-.51,13.62-.77,4.8.63,6.62,5.37,5.56,6.24-1.39,12.45-2.97,18.76-3.99,3.47-.57,7.28-.86,10.58.03,2.23.6,4.22,3.24,5.64,5.41,1.72,2.63,1.66,2.73,3.81.53,2.08-2.13,4.32-4.4,6.95-5.64,4-1.89,7.12.24,7.93,4.62.27,1.47.56,2.97,1.09,4.36.35.93,1.14,1.7,1.73,2.54.87-.64,1.9-1.15,2.58-1.95,3.14-3.69,6.2-7.46,9.27-11.2,1.16-1.42,2.51-2.17,4.19-.93,1.51,1.11,1.73,2.52.97,4.29-1.77,4.17-.66,9.69,3.15,11.93,3.36,1.98,7.38,2.31,10.82.8-.38-2.83-1.36-5.45-.94-7.83,1.16-6.61,6.34-9.78,11.96-12.19,2.47-1.06,5.13-2.06,7.77-2.25,4.87-.36,7.32,3.68,4.87,7.85-1.52,2.58-3.43,4.97-5.38,7.25-1.78,2.08-3.84,3.92-5.79,5.85-2.49,2.48-2.13,3.44,1.27,4.74,4.57,1.75,9.28,1.97,14.05,1.69,2.14-.13,4.4-.31,4.73,2.44.34,2.76-2.17,3.8-4.09,4.01-3.06.33-6.3.2-9.3-.47-4.69-1.05-9.5-2.04-13.17-5.68-.54-.54-2.23-.46-3.1-.06-8.4,3.95-17.94.72-21.98-7.56-1.19-2.45-2.09-2.59-3.94-.49-2.08,2.35-3.96,4.91-6.19,7.11-1.32,1.29-3.45,3.11-4.69,2.77-1.4-.38-2.64-2.78-3.2-4.55-.99-3.14-1.39-6.46-2.08-9.69-.33-1.54-2.25-2.09-3.21-.77-2.41,3.32-4.69,6.73-6.81,10.24-.68,1.13-.48,2.77-1.06,4-.69,1.45-1.62,2.88-2.78,3.96-.39.37-2.42-.11-2.61-.62-.52-1.38-.96-3.13-.55-4.47,1.51-4.94-.47-12.65-4.09-14.28-.83-.37-1.88-.26-2.83-.37-.03,1.02-.41,2.19-.03,3.03,2.31,5.14-2.63,14.96-7.26,16.77-4.15,1.62-7.78.12-10.91-2.64-2.86-2.51-3.55-5.81-2.66-9.42.95-3.84,1-3.83-3.14-3.83-6.21-.01-6.31,0-5.79,5.65.44,4.68,1.13,9.34,1.79,13.99.14.97,1.04,1.94.92,2.82-.17,1.26-.7,2.72-1.59,3.51-.46.41-2.67-.14-3.01-.81-1.21-2.36-2.35-4.9-2.8-7.49-.65-3.76-.78-7.63-.92-11.46-.08-2.19-.58-3.64-3.12-3.13-5.32,1.05-10.64,2.12-15.94,3.27-1.96.43-3.89,1.05-5.8,1.69-2.04.68-2.98,1.48-2.84,4.32.2,4-1.03,8.14-2.17,12.07-.27.91-2.65,1.21-4.05,1.8-.55-1.36-1.72-2.81-1.53-4.05.5-3.15,1.6-6.21,2.55-9.59Zm137.43-10.14c1.46-.92,2.91-1.54,3.98-2.57,2.54-2.46,4.97-5.03,7.26-7.73.51-.61.62-2.15.2-2.78-.34-.5-1.92-.6-2.69-.27-2.42,1.01-4.93,2.02-7.01,3.56-4.37,3.22-4.73,5.86-1.72,9.79Zm-73.83.91c0-2.6-2.11-4.55-4.92-4.53-2.49.02-6.09,3.85-6.1,6.5,0,2.19,2.43,4.98,4.41,5.04,2.21.07,6.6-4.59,6.61-7.01Zm-56.13-20.68c5.67,1,14.17-5.4,14.58-10.98-6.27-1.41-13.14,3.76-14.58,10.98Z"/>
  <path class="cls-1" d="m279.04,89.4c-3.01-3.94-2.64-6.57,1.72-9.79,2.08-1.54,4.6-2.54,7.01-3.56.78-.32,2.35-.23,2.69.27.42.62.32,2.17-.2,2.78-2.28,2.69-4.72,5.27-7.26,7.73-1.06,1.03-2.52,1.65-3.98,2.57Z"/>
  <path class="cls-1" d="m205.21,90.31c0,2.43-4.4,7.08-6.61,7.01-1.98-.06-4.42-2.85-4.41-5.04.01-2.65,3.61-6.48,6.1-6.5,2.81-.02,4.93,1.93,4.92,4.53Z"/>
  <path class="cls-1" d="m149.08,69.64c1.44-7.21,8.3-12.38,14.58-10.98-.41,5.58-8.9,11.97-14.58,10.98Z"/>
</svg>