<?xml version="1.0" encoding="UTF-8"?>
<svg id="Layer_1" data-name="Layer 1" xmlns="http://www.w3.org/2000/svg" viewBox="0 0 169.1 163.82">
  <defs>
    <style>
      .cls-1 {
        fill: #fff;
      }
    </style>
  </defs>
  <path class="cls-1" d="m88.19,130.16c7.68-.57,15.37-.97,23.03-1.77,9.74-1.02,16.48-7,19.18-16.47,2.6-9.13,3.3-18.52,3.36-27.92.05-7.7-.38-15.44-1.12-23.11-.46-4.78-1.5-9.43-5.6-13.01-6.7-5.84-14.64-8.56-23.11-9.7-3.43-.46-7.1.8-10.66,1.29-4.99.69-9.97,1.43-14.97,2.06-5.62.71-11.27,1.89-16.89,1.85-7.05-.06-12.69,2.91-17.52,7.23-2.97,2.66-5.49,6.41-6.84,10.17-3.23,8.95-1.98,18.52-1.7,27.73.24,7.83.89,15.97,4.55,23.33,3.47,6.98,7.62,12.85,15.99,14.88,10.66,2.59,21.44,2.81,32.31,3.43Z"/>
  <path d="m88.19,130.16c-10.87-.63-21.64-.84-32.31-3.43-8.37-2.03-12.52-7.91-15.99-14.88-3.66-7.36-4.31-15.51-4.55-23.33-.28-9.21-1.53-18.78,1.7-27.73,1.36-3.75,3.87-7.51,6.84-10.17,4.83-4.32,10.47-7.28,17.52-7.23,5.63.04,11.27-1.14,16.89-1.85,5-.63,9.98-1.37,14.97-2.06,3.56-.49,7.23-1.75,10.66-1.29,8.47,1.14,16.41,3.86,23.11,9.7,4.1,3.57,5.14,8.23,5.6,13.01.73,7.67,1.17,15.41,1.12,23.11-.06,9.4-.75,18.79-3.36,27.92-2.7,9.47-9.44,15.45-19.18,16.47-7.65.8-15.35,1.19-23.03,1.77Zm.42-7.82c.02.35.03.7.05,1.05,6.65-.57,13.31-1.03,19.94-1.73,6.28-.66,11.17-3.6,13.58-9.67,3.83-9.65,4.85-19.79,4.66-30.08-.11-5.67-.24-11.34-.55-17-.36-6.62-1.24-13.08-8.56-16.02-1.76-.71-3.61-1.22-5.34-1.99-7.1-3.18-14.55-2.92-21.99-2.1-9.51,1.05-18.97,2.59-28.49,3.57-8.06.82-17.48,7.79-18.81,15.07-2.6,14.15-1.78,28.36,1.29,42.29,1.39,6.32,4.67,12.28,11.74,14.36,3.56,1.05,7.27,1.98,10.95,2.15,7.17.34,14.37.1,21.55.1Z"/>
  <path class="cls-1" d="m88.6,122.34c-7.19,0-14.38.24-21.55-.1-3.68-.17-7.39-1.1-10.95-2.15-7.07-2.08-10.35-8.04-11.74-14.36-3.07-13.94-3.88-28.14-1.29-42.29,1.33-7.28,10.75-14.25,18.81-15.07,9.52-.97,18.98-2.52,28.49-3.57,7.44-.82,14.89-1.08,21.99,2.1,1.73.78,3.58,1.29,5.34,1.99,7.32,2.94,8.2,9.39,8.56,16.02.31,5.66.45,11.33.55,17,.19,10.29-.83,20.43-4.66,30.08-2.41,6.07-7.3,9.01-13.58,9.67-6.63.7-13.29,1.16-19.94,1.73-.02-.35-.03-.7-.05-1.05Zm-23.04-35.94c0,11.24,12.86,20.64,23.31,16.92,11.9-4.24,14.97-16.22,10.22-25.76-1.79-3.6-5.56-6.23-8.51-9.23-3.03-3.08-6.7-3.4-10.67-2.26-6.85,1.98-15.34,10.9-14.35,20.33Zm42.84-33.83c-3.86,0-6.49,2.12-6.46,5.22.05,4.64.91,5.87,4.12,5.89,4.58.02,7.94-2.2,7.96-5.26.02-3.29-2.44-5.84-5.62-5.85Z"/>
  <path d="m65.56,86.4c-.99-9.43,7.49-18.36,14.35-20.33,3.97-1.14,7.64-.82,10.67,2.26,2.95,3,6.72,5.63,8.51,9.23,4.76,9.55,1.68,21.52-10.22,25.76-10.45,3.72-23.31-5.67-23.31-16.92Z"/>
  <path d="m108.41,52.57c3.18,0,5.64,2.57,5.62,5.85-.02,3.05-3.38,5.28-7.96,5.26-3.21-.01-4.07-1.24-4.12-5.89-.03-3.1,2.59-5.23,6.46-5.22Z"/>
</svg>