<?xml version="1.0" encoding="UTF-8"?>
<svg id="Layer_1" data-name="Layer 1" xmlns="http://www.w3.org/2000/svg" viewBox="0 0 169.1 163.82">
  <defs>
    <style>
      .cls-1 {
        fill: #fff;
      }
    </style>
  </defs>
  <path class="cls-1" d="m104.62,77.9s0-.03,0-.05c5.38,0,10.76.09,16.14-.04,2.19-.05,4.44-.37,6.54-.99.93-.27,1.55-1.58,2.31-2.42-.99-.47-1.98-1.33-2.97-1.34-9.62-.09-19.25-.18-28.87,0-14.4.28-28.79.73-43.18,1.27-2.67.1-5.34.93-7.97,1.57-2.38.58-2.97,2.45-2.31,4.5.64,1.97,2.28,2.13,4.23,1.72,5.2-1.1,10.4-2.49,15.67-2.89,10.29-.77,20.63-.96,30.95-1.33,3.14-.11,6.29-.02,9.44-.02Z"/>
  <path class="cls-1" d="m107.36,111.63c.04-.11.07-.22.11-.33,2.64-.6,5.34-1.02,7.87-1.93.72-.26.93-1.92,1.38-2.94-.99-.37-1.98-1.08-2.96-1.06-6.38.12-12.76.53-19.14.61-14.07.18-28.15.12-42.22.38-2.86.05-5.77.89-8.54,1.75-2.02.62-2.86,2.59-1.94,4.43.85,1.69,2.5,2.3,4.65,1.44,2.3-.91,4.79-1.68,7.24-1.84,8.99-.57,18-1.1,27-1.18,8.84-.08,17.69.42,26.54.66Z"/>
  <path class="cls-1" d="m103.36,52.28l.13.48c2.5-.58,5.09-.96,7.47-1.86.76-.29,1.64-2.39,1.3-2.93-.56-.88-2.04-1.54-3.18-1.62-1.89-.14-3.83.46-5.73.38-6.47-.29-12.92-.92-19.39-1.09-7.63-.2-15.27-.22-22.9-.03-5.12.13-10.26.57-15.33,1.31-1.25.18-3.08,1.98-3.19,3.17-.21,2.16,1.8,3.02,3.82,2.79,1.79-.2,3.53-1.09,5.31-1.15,9.64-.31,19.28-.68,28.91-.6,7.6.06,15.19.74,22.79,1.15Z"/>
  <path d="m104.62,77.9c-3.15,0-6.3-.09-9.44.02-10.32.37-20.66.56-30.95,1.33-5.27.39-10.47,1.79-15.67,2.89-1.95.41-3.59.25-4.23-1.72-.67-2.05-.07-3.91,2.31-4.5,2.63-.65,5.29-1.47,7.97-1.57,14.39-.55,28.78-.99,43.18-1.27,9.62-.19,19.25-.1,28.87,0,.99,0,1.98.88,2.97,1.34-.76.84-1.38,2.15-2.31,2.42-2.1.61-4.34.93-6.54.99-5.38.13-10.76.04-16.14.04,0,.02,0,.03,0,.05Z"/>
  <path d="m107.36,111.63c-8.85-.24-17.7-.74-26.54-.66-9,.08-18.01.61-27,1.18-2.45.15-4.94.92-7.24,1.84-2.15.85-3.8.25-4.65-1.44-.92-1.84-.08-3.81,1.94-4.43,2.77-.85,5.68-1.7,8.54-1.75,14.07-.26,28.14-.21,42.22-.38,6.38-.08,12.76-.49,19.14-.61.98-.02,1.97.69,2.96,1.06-.45,1.02-.66,2.68-1.38,2.94-2.53.9-5.24,1.32-7.87,1.93-.04.11-.07.22-.11.33Z"/>
  <path d="m103.36,52.28c-7.59-.41-15.19-1.08-22.79-1.15-9.64-.08-19.28.29-28.91.6-1.78.06-3.52.94-5.31,1.15-2.02.23-4.03-.63-3.82-2.79.11-1.19,1.94-2.99,3.19-3.17,5.07-.74,10.21-1.18,15.33-1.31,7.63-.19,15.27-.18,22.9.03,6.47.17,12.93.8,19.39,1.09,1.9.09,3.84-.52,5.73-.38,1.14.08,2.62.74,3.18,1.62.34.54-.55,2.64-1.3,2.93-2.38.9-4.96,1.28-7.47,1.86l-.13-.48Z"/>
</svg>