<?xml version="1.0" encoding="UTF-8"?>
<svg id="Layer_1" data-name="Layer 1" xmlns="http://www.w3.org/2000/svg" viewBox="0 0 446.53 155.89">
  <defs>
    <style>
      .cls-1 {
        fill: #fff;
      }
    </style>
  </defs>
  <path class="cls-1" d="m208.51,90.93c-.15-.34-.3-.67-.45-1.01,3.17-3.02,5.45-6.41,5.31-11.05-.07-2.39-1.83-4.34-4.91-3.38-3.3,1.03-6.63,2.33-9.55,4.14-5.22,3.24-6.25,7.07-4.61,13.45.2.77-.42,2.3-1.08,2.64-2.91,1.5-5.92,2.85-9,3.94-2.64.94-3.45,0-3.82-2.84-.63-4.83-1.22-9.72-2.45-14.41-1.58-6.03-4.68-6.86-10.05-3.72-5.04,2.95-8.26,7.56-11.71,11.96-2.33,2.97-4.4,6.16-6.45,9.34-1.54,2.39-.95,4.83,1.44,5.14,1.29.17,3.35-.84,4.09-1.96,2.64-3.97,4.67-8.35,7.31-12.32,1.63-2.45,3.74-4.69,6.01-6.57,2.33-1.93,4.39-1.21,5.04,1.78.92,4.17,1.64,8.44,1.86,12.69.35,6.89,4.97,10.03,10.97,6.94,3.36-1.73,6.5-3.87,9.88-5.55,2.17-1.08,4.55-1.84,6.91-2.46,3.65-.96,7.36-1.7,11.05-2.51,1.07-.23,2.26-.76,3.22-.51,4.66,1.21,9.3,1.52,14.02.54,3.66-.75,7.01-1.89,9.41-5.12.92-1.24,2.46-2.2,3.91-2.86,6.42-2.93,12.91-5.69,19.35-8.56,1.38-.62,2.61-1.16,3.58.59,1.26,2.26,2.62,4.47,3.9,6.73.83,1.48.22,2.32-1.35,2.47-2.71.26-5.43.37-8.13.65-3.38.35-6.78.67-10.12,1.31-1.15.22-2.37,1.18-3.12,2.14-1.32,1.7-.33,3.66,1.86,3.83,5.91.47,11.84,1.16,17.75,1.11,2.72-.02,5.47-1.45,8.14-2.42,1.65-.6,3.14-2.12,4.77-2.22,9.69-.6,19.4-1.08,29.1-1.26,7.36-.14,14.16-2.13,20.66-5.31,1.02-.5,1.48-2.16,2.2-3.28-1.19-.41-2.58-1.43-3.55-1.12-6.07,1.88-12.31,2.31-18.53,3.26-10.5,1.59-20.93,1.44-31.42,1.46-.94,0-2.32-.63-2.74-1.38-1.68-3.03-3.04-6.24-4.57-9.36-.9-1.84-.43-2.99,1.22-4.26,2.78-2.14,2.27-5.46-1.02-6.79-1.52-.61-3.36-.84-4.98-.65-2.69.31-5.01,2.95-4.22,4.87,1.44,3.51-.6,4.93-3.15,5.97-5.06,2.07-10.23,3.89-15.33,5.88-5.99,2.34-6.77,1.07-9.58-4.35-.61-1.18-.25-2.88-.88-4.05-.71-1.34-1.82-2.94-3.12-3.4-1.91-.68-2.78,1.01-3.08,2.78-.13.78-.21,1.58-.43,2.34-.44,1.49-.54,3.37-1.52,4.37-3.19,3.27-6.5,6.52-10.18,9.2-2.22,1.62-5.23,2.15-7.88,3.18Z"/>
  <path class="cls-1" d="m135.58,96.08c-.61-4.18-1.38-7.47-1.48-10.78-.11-3.6.36-7.22.65-10.82.16-1.94.01-3.76-2.21-4.28-2.51-.58-3.36,1.3-3.93,3.23-.2.66-.14,1.42-.07,2.12.58,6.18,1.31,12.34,1.73,18.53.18,2.7.85,5.52-1.89,7.83-1.89,1.59-1.11,4.65,1.01,4.58,3.81-.14,3.94,2.34,4.68,4.82.42,1.39,1.08,2.92,2.1,3.88,1.57,1.48,3.42,2.72,5.84,1.09,2.56-1.72,4.7-9.82,2.98-12.36-.38-.55-1.36-1.16-1.9-1.03-.85.2-1.64.91-2.3,1.56-.48.48-.7,1.23-1.34,2.42-1.38-2.37-1.91-4.03-.15-5.65,1.33-1.23,2.81-2.29,4.1-3.54,5.57-5.4,10.63-11.24,14.41-18.03,1.37-2.46,2.44-5.22,2.98-7.97,1.26-6.32-7.36-11.79-12.38-11.88-6.03-.12-12.08-.31-18.09.08-3.41.22-6.82,1.34-10.06,2.52-.99.36-1.95,2.26-1.97,3.48-.02,1.51,1.13,2.84,3.08,2.43,1.64-.35,3.34-.62,4.86-1.28,7.63-3.34,15.49-3.26,23.26-1.09,6.1,1.7,7.16,5.1,4.11,10.67-.24.43-.45.89-.76,1.27-3.53,4.36-6.96,8.83-10.69,13.02-1.6,1.81-3.83,3.06-6.58,5.19Z"/>
  <path d="m208.51,90.93c2.65-1.02,5.66-1.56,7.88-3.18,3.69-2.68,6.99-5.92,10.18-9.2.98-1,1.08-2.87,1.52-4.37.22-.76.29-1.56.43-2.34.3-1.77,1.17-3.46,3.08-2.78,1.3.46,2.41,2.06,3.12,3.4.62,1.18.26,2.87.88,4.05,2.82,5.42,3.59,6.69,9.58,4.35,5.1-1.99,10.26-3.81,15.33-5.88,2.55-1.04,4.59-2.46,3.15-5.97-.79-1.92,1.53-4.56,4.22-4.87,1.63-.19,3.47.04,4.98.65,3.29,1.33,3.8,4.64,1.02,6.79-1.65,1.27-2.13,2.42-1.22,4.26,1.53,3.12,2.89,6.33,4.57,9.36.42.75,1.8,1.38,2.74,1.38,10.49-.01,20.92.14,31.42-1.46,6.22-.94,12.46-1.38,18.53-3.26.98-.3,2.36.72,3.55,1.12-.72,1.12-1.18,2.77-2.2,3.28-6.49,3.18-13.29,5.18-20.66,5.31-9.71.18-19.41.66-29.1,1.26-1.63.1-3.12,1.62-4.77,2.22-2.67.97-5.42,2.4-8.14,2.42-5.91.04-11.84-.64-17.75-1.11-2.19-.17-3.18-2.13-1.86-3.83.75-.96,1.97-1.92,3.12-2.14,3.33-.64,6.73-.96,10.12-1.31,2.7-.28,5.42-.39,8.13-.65,1.57-.15,2.18-.99,1.35-2.47-1.27-2.26-2.63-4.47-3.9-6.73-.98-1.75-2.2-1.21-3.58-.59-6.45,2.87-12.94,5.62-19.35,8.56-1.45.66-2.99,1.61-3.91,2.86-2.4,3.23-5.75,4.36-9.41,5.12-4.73.97-9.37.67-14.02-.54-.97-.25-2.15.27-3.22.51-3.69.81-7.4,1.55-11.05,2.51-2.36.62-4.73,1.37-6.91,2.46-3.38,1.69-6.52,3.82-9.88,5.55-6,3.09-10.62-.04-10.97-6.94-.22-4.26-.94-8.52-1.86-12.69-.66-2.99-2.71-3.71-5.04-1.78-2.27,1.88-4.38,4.12-6.01,6.57-2.64,3.97-4.67,8.35-7.31,12.32-.74,1.12-2.8,2.13-4.09,1.96-2.39-.31-2.98-2.75-1.44-5.14,2.05-3.18,4.11-6.37,6.45-9.34,3.46-4.4,6.67-9.02,11.71-11.96,5.37-3.14,8.47-2.31,10.05,3.72,1.23,4.7,1.82,9.58,2.45,14.41.37,2.84,1.18,3.78,3.82,2.84,3.08-1.1,6.09-2.45,9-3.94.67-.34,1.28-1.87,1.08-2.64-1.64-6.38-.61-10.21,4.61-13.45,2.92-1.81,6.25-3.11,9.55-4.14,3.08-.96,4.84.99,4.91,3.38.14,4.64-2.14,8.03-5.31,11.05.15.34.3.67.45,1.01Zm-.84-8.57l-.82-.74c-3.03.92-5.72,2.53-7.66,5.09-.5.66.12,2.16.23,3.27.85-.25,1.86-.3,2.53-.8,1.13-.84,2.13-1.89,3.02-2.98.99-1.21,1.81-2.56,2.7-3.85Zm20.75,3.31c1.55-.47,3.1-.95,4.83-1.48-2.08-2.89-2.51-2.79-4.83,1.48Z"/>
  <path d="m135.58,96.08c2.75-2.13,4.98-3.38,6.58-5.19,3.73-4.2,7.15-8.66,10.69-13.02.31-.38.52-.84.76-1.27,3.05-5.58,1.99-8.97-4.11-10.67-7.77-2.17-15.63-2.25-23.26,1.09-1.52.66-3.22.93-4.86,1.28-1.94.41-3.1-.92-3.08-2.43.02-1.21.98-3.11,1.97-3.48,3.24-1.18,6.66-2.29,10.06-2.52,6.01-.39,12.06-.2,18.09-.08,5.03.1,13.64,5.57,12.38,11.88-.55,2.75-1.62,5.51-2.98,7.97-3.78,6.8-8.85,12.63-14.41,18.03-1.3,1.26-2.78,2.32-4.1,3.54-1.76,1.63-1.23,3.28.15,5.65.64-1.19.85-1.93,1.34-2.42.65-.66,1.45-1.36,2.3-1.56.54-.13,1.52.48,1.9,1.03,1.72,2.54-.42,10.63-2.98,12.36-2.42,1.63-4.27.39-5.84-1.09-1.02-.96-1.69-2.49-2.1-3.88-.74-2.47-.87-4.95-4.68-4.82-2.11.08-2.89-2.98-1.01-4.58,2.73-2.31,2.07-5.14,1.89-7.83-.42-6.19-1.15-12.35-1.73-18.53-.07-.7-.12-1.47.07-2.12.57-1.93,1.42-3.81,3.93-3.23,2.23.52,2.37,2.34,2.21,4.28-.29,3.6-.76,7.22-.65,10.82.1,3.31.88,6.59,1.48,10.78Z"/>
  <path class="cls-1" d="m207.67,82.36c-.89,1.29-1.71,2.64-2.7,3.85-.9,1.09-1.9,2.14-3.02,2.98-.67.5-1.67.55-2.53.8-.11-1.11-.73-2.62-.23-3.27,1.94-2.56,4.63-4.17,7.66-5.09l.82.74Z"/>
  <path class="cls-1" d="m228.42,85.67c2.33-4.27,2.76-4.37,4.83-1.48-1.73.53-3.28,1-4.83,1.48Z"/>
</svg>