<?xml version="1.0" encoding="UTF-8"?>
<svg id="Layer_1" data-name="Layer 1" xmlns="http://www.w3.org/2000/svg" viewBox="0 0 169.1 163.82">
  <defs>
    <style>
      .cls-1 {
        fill: #fff;
      }
    </style>
  </defs>
  <path class="cls-1" d="m110.51,54.66c-.04-.36-.11-1.37-.28-2.36-1.3-7.7-5.77-13.04-12.16-17.29-7.43-4.93-15.39-5.67-23.46-3.03-5.59,1.83-11.17,4.43-15.91,7.86-4.45,3.22-9.82,5.89-12.15,11.48-.81,1.93-1.55,3.91-2.11,5.93-2.27,8.11-3.06,16.23.1,24.33,3.79,9.73,17.37,17.37,27.99,14.09,4.53-1.4,8.69-4.09,12.92-6.38,2.03-1.1,3.37-1.13,4.17,1.28,4.25,12.86,12.05,23.7,19.82,34.53.96,1.34,2.4,2.53,3.88,3.22.75.34,2.38-.34,3.07-1.08.53-.57.64-2.18.22-2.9-2.65-4.52-5.49-8.93-8.28-13.36-3.64-5.78-8.65-10.68-11.07-17.27-.86-2.34-1.82-4.74-3.27-6.73-1.39-1.91-.9-2.96.49-4.38,3.06-3.12,6.15-6.24,8.94-9.6,4.24-5.09,6.87-10.92,7.09-18.34Z"/>
  <path d="m110.51,54.66c-.22,7.41-2.86,13.25-7.09,18.34-2.79,3.36-5.88,6.47-8.94,9.6-1.39,1.42-1.88,2.48-.49,4.38,1.45,1.99,2.41,4.39,3.27,6.73,2.43,6.59,7.43,11.48,11.07,17.27,2.79,4.44,5.64,8.84,8.28,13.36.42.72.32,2.33-.22,2.9-.69.73-2.33,1.42-3.07,1.08-1.48-.68-2.92-1.88-3.88-3.22-7.77-10.83-15.57-21.67-19.82-34.53-.8-2.41-2.14-2.38-4.17-1.28-4.23,2.29-8.39,4.98-12.92,6.38-10.61,3.28-24.19-4.36-27.99-14.09-3.16-8.11-2.38-16.22-.1-24.33.57-2.02,1.3-3.99,2.11-5.93,2.33-5.59,7.71-8.26,12.15-11.48,4.74-3.43,10.32-6.02,15.91-7.86,8.06-2.65,16.03-1.91,23.46,3.03,6.4,4.25,10.86,9.59,12.16,17.29.17,1,.24,2.01.28,2.36Zm-64.06,14.46c.63,2.96,1.04,5.65,1.77,8.26,2.68,9.48,10.4,13.38,17.7,13.55,7.59.18,14.6-3.31,20.4-8.12,5.2-4.3,9.77-9.4,14.39-14.36,6.78-7.3,6.87-20.38-1.46-26.76-7.03-5.4-14.95-8.64-24-5.01-3.98,1.6-7.83,3.53-11.73,5.35-5.65,2.65-7.98,7.98-10.31,13.19-.55,1.23-.33,3.07.14,4.42,1.05,3.04.96,6.58,3.87,8.89.4.31.22,2.25-.25,2.54-.72.44-2.17.49-2.86.03-1.13-.76-1.87-2.09-2.84-3.12-1.11-1.18-2.29-2.29-3.44-3.42-.47,1.56-.95,3.11-1.39,4.57Z"/>
  <path class="cls-1" d="m46.45,69.11c.44-1.45.91-3.01,1.39-4.57,1.15,1.14,2.33,2.25,3.44,3.42.97,1.03,1.7,2.36,2.84,3.12.69.46,2.14.41,2.86-.03.46-.29.64-2.22.25-2.54-2.91-2.31-2.82-5.85-3.87-8.89-.47-1.35-.68-3.19-.14-4.42,2.32-5.22,4.66-10.55,10.31-13.19,3.89-1.82,7.74-3.75,11.73-5.35,9.05-3.63,16.97-.39,24,5.01,8.33,6.39,8.24,19.46,1.46,26.76-4.61,4.97-9.19,10.06-14.39,14.36-5.8,4.8-12.81,8.3-20.4,8.12-7.3-.17-15.02-4.07-17.7-13.55-.73-2.6-1.15-5.29-1.77-8.26Z"/>
</svg>