<?xml version="1.0" encoding="UTF-8"?>
<svg id="Layer_1" data-name="Layer 1" xmlns="http://www.w3.org/2000/svg" viewBox="0 0 446.53 155.89">
  <defs>
    <style>
      .cls-1 {
        fill: #fff;
      }
    </style>
  </defs>
  <path class="cls-1" d="m244.77,83.72l-1.19-.72c.85-5.11,1.6-10.24,2.58-15.33.67-3.46-1.47-5.67-4.93-4.83-5.13,1.24-8.82,4.39-11.88,8.55-4.09,5.55-8.44,10.91-12.49,16.49-1.17,1.61-2.07,1.35-3.13.29-.77-.77-1.46-1.69-1.94-2.66-1.67-3.38-3.16-6.85-4.84-10.22-1.28-2.58-4.61-3.15-6.44-1.01-3.78,4.42-7.48,8.92-11.08,13.48-2.03,2.58-3,2.49-4.61-.46-1.22-2.24-2.43-4.64-4.2-6.41-4.9-4.88-12.47-5.05-16.95-.33-3.94,4.15-7.43,8.71-11.19,13.03-1.71,1.96-3.27,4.46-5.47,5.49-3.06,1.43-5.42-.95-7.51-3.19-1.36-1.46-1.59-2.43.36-3.51,1.91-1.07,3.73-2.31,5.55-3.55,2.05-1.4,3.12-4.74,2.17-6.53-1.26-2.36-3.96-3.32-6.64-1.52-2.5,1.68-4.39,4.25-6.57,6.41-1.18,1.17-2.21,2.78-3.64,3.36-4.23,1.7-8.57,3.19-12.98,4.29-1.3.32-3.27-.59-4.45-1.54-1.78-1.43-3.04-3.48-4.69-5.1-2.37-2.34-4.98-4.43-7.32-6.81-1.97-2-1.94-4.43.12-5.74,4.79-3.04,9.57-6.17,14.65-8.63,2.35-1.14,5.45-1.21,8.15-.99,2.52.21,2.01,3.06,2.69,4.82.15.37.27.89.56,1.04.84.43,1.82,1.1,2.62.95.81-.15,1.88-1.03,2.11-1.8,1.71-5.83-5.04-12.93-10.76-11.08-4.7,1.53-9.42,3.39-13.65,5.91-4,2.39-7.52,5.67-10.98,8.86-2.59,2.38-3.44,6.57.06,9.71,3.86,3.46,7.33,7.34,11.06,10.95,1.66,1.61,1.54,2.99-.17,4.28-1.35,1.01-2.87,1.78-4.27,2.73-2.9,1.95-4.25,6.68-2.77,9.55,1.83,3.56,5.84,5.2,9.57,3.89,3.73-1.31,6.9-6.1,6.66-10.81-.16-3.23,1.21-4.88,4.08-5.75,3.04-.92,6.04-1.97,9.09-2.86,1.55-.45,2.59-.1,3.73,1.49,1.77,2.48,3.91,5.13,6.52,6.5,5.53,2.89,8.42,3.24,11.54-.7,3.97-5.01,7.73-10.18,11.49-15.35,2.41-3.32,5.5-5.49,9.64-4.85,3.65.57,5.76,3.48,6.86,6.77.94,2.79,1.24,5.79,1.88,8.69.57,2.55,2.34,3.6,4.67,2.54,1.08-.5,2-1.58,2.74-2.58,3.45-4.65,6.69-9.46,10.25-14.01,2.4-3.07,3.6-2.77,5.42.61,1.99,3.69,3.99,7.39,6.19,10.96,1.83,2.96,5.11,3.02,7.12.23,5.58-7.78,11.07-15.62,16.68-23.38.84-1.16,2.08-2.03,3.74-3.59.32,1.79.62,2.55.56,3.28-.4,5.01-1.09,10-1.21,15.02-.05,1.9,1.15,3.84,1.78,5.76,1.75-.6,3.88-.77,5.17-1.9,3.6-3.14,6.82-6.7,10.24-10.04.78-.76,1.75-1.32,2.63-1.97-.57,2.87-1.65,5.3-2.66,7.75-2.13,5.12,2.86,9.86,7.12,9.96,9.09.23,16.5-3.7,23.49-8.65,2.16-1.53,3.91-1.99,6.29-1.22,3.76,1.22,7.71,2.23,11.46.47,7.05-3.31,14.47-6.27,18.44-14.32.47.7.81,1,.89,1.36,1.06,4.55,2.13,9.11,3.04,13.69.1.52-.6,1.54-1.17,1.79-2.17.95-4.39,1.85-6.68,2.46-3.65.97-7.44,1.45-11.01,2.64-1.27.43-2.47,2.22-2.86,3.62-.18.64,1.62,2.64,2.57,2.68,4.92.21,9.81,1.45,14.76-.83,5.8-2.68,11.43-6.02,18.46-5.26,2.2.24,4.95-1.87,6.96-3.51,1.77-1.45,1.11-4.27-1.07-4.77-3.21-.75-6.65-1.38-9.86-.98-3.82.47-4.31.21-5.24-3.46-1.79-7.11-4.04-14.11-6.33-21.08-.35-1.05-1.97-1.69-3.01-2.52-.92,1.2-2.17,2.27-2.69,3.63-.63,1.64-.46,3.57-.94,5.29-1.7,6.24-11.31,13.85-17.76,14.2-3.31.18-4.45-.9-4.67-3.85-.11-1.46-.84-2.88-1.29-4.31-1.45.64-2.95,1.2-4.33,1.96-.67.37-1.47,1.03-1.64,1.71-1.08,4.18-4.71,5.67-7.83,7.75-4.48,2.99-9.35,4.98-14.74,5.26-5.15.26-6.42-1.97-3.71-6.48,3.46-5.76,7.9-10.67,13.76-14.09,1.73-1.01,2.31-2.43,1.42-3.82-.6-.95-2.25-1.55-3.5-1.7-1.08-.13-2.26.59-3.39.98-8.85,3.06-15.78,8.96-22.48,15.2-.89.83-1.88,1.53-2.83,2.3Z"/>
  <path class="cls-1" d="m263.19,63.88c2.23.21,3.13-1.52,3.19-3.35.08-2.47-1.96-3.32-4.02-3.28-1.58.03-3.52.38-3.53,2.67-.01,1.95,2.25,4,4.36,3.96Z"/>
  <path d="m244.77,83.72c.94-.76,1.94-1.47,2.83-2.3,6.7-6.24,13.63-12.15,22.48-15.2,1.12-.39,2.31-1.1,3.39-.98,1.25.15,2.89.75,3.5,1.7.88,1.39.3,2.81-1.42,3.82-5.85,3.42-10.3,8.33-13.76,14.09-2.71,4.51-1.43,6.75,3.71,6.48,5.39-.28,10.26-2.27,14.74-5.26,3.12-2.08,6.75-3.57,7.83-7.75.18-.68.97-1.34,1.64-1.71,1.38-.76,2.88-1.32,4.33-1.96.45,1.44,1.18,2.85,1.29,4.31.22,2.95,1.36,4.03,4.67,3.85,6.45-.35,16.06-7.96,17.76-14.2.47-1.72.31-3.65.94-5.29.52-1.35,1.76-2.43,2.69-3.63,1.03.83,2.66,1.46,3.01,2.52,2.3,6.97,4.54,13.97,6.33,21.08.92,3.67,1.41,3.94,5.24,3.46,3.21-.4,6.65.24,9.86.98,2.18.51,2.84,3.32,1.07,4.77-2,1.64-4.76,3.75-6.96,3.51-7.03-.76-12.65,2.58-18.46,5.26-4.95,2.28-9.85,1.05-14.76.83-.96-.04-2.76-2.04-2.57-2.68.4-1.4,1.59-3.2,2.86-3.62,3.56-1.2,7.36-1.67,11.01-2.64,2.29-.61,4.51-1.51,6.68-2.46.57-.25,1.28-1.27,1.17-1.79-.91-4.58-1.98-9.14-3.04-13.69-.08-.36-.42-.66-.89-1.36-3.97,8.06-11.39,11.01-18.44,14.32-3.76,1.76-7.7.75-11.46-.47-2.39-.78-4.13-.32-6.29,1.22-6.99,4.95-14.41,8.88-23.49,8.65-4.26-.11-9.24-4.85-7.12-9.96,1.02-2.45,2.09-4.88,2.66-7.75-.88.65-1.86,1.21-2.63,1.97-3.42,3.34-6.65,6.91-10.24,10.04-1.29,1.13-3.43,1.29-5.17,1.9-.63-1.92-1.83-3.86-1.78-5.76.12-5.01.81-10.01,1.21-15.02.06-.73-.24-1.48-.56-3.28-1.65,1.57-2.9,2.43-3.74,3.59-5.6,7.76-11.09,15.6-16.68,23.38-2.01,2.79-5.29,2.73-7.12-.23-2.2-3.57-4.2-7.26-6.19-10.96-1.82-3.38-3.02-3.68-5.42-.61-3.56,4.56-6.8,9.37-10.25,14.01-.74,1-1.66,2.08-2.74,2.58-2.34,1.07-4.1.01-4.67-2.54-.64-2.9-.94-5.9-1.88-8.69-1.11-3.29-3.21-6.2-6.86-6.77-4.14-.64-7.23,1.53-9.64,4.85-3.75,5.17-7.52,10.35-11.49,15.35-3.12,3.94-6.02,3.59-11.54.7-2.62-1.37-4.75-4.02-6.52-6.5-1.14-1.6-2.18-1.95-3.73-1.49-3.05.89-6.05,1.94-9.09,2.86-2.87.87-4.24,2.52-4.08,5.75.24,4.7-2.94,9.5-6.66,10.81-3.73,1.31-7.75-.32-9.57-3.89-1.47-2.88-.12-7.6,2.77-9.55,1.4-.94,2.92-1.72,4.27-2.73,1.72-1.28,1.84-2.67.17-4.28-3.73-3.61-7.2-7.49-11.06-10.95-3.51-3.14-2.66-7.33-.06-9.71,3.46-3.18,6.98-6.47,10.98-8.86,4.23-2.52,8.94-4.38,13.65-5.91,5.72-1.86,12.47,5.25,10.76,11.08-.23.77-1.3,1.65-2.11,1.8-.8.15-1.78-.52-2.62-.95-.29-.15-.41-.67-.56-1.04-.69-1.76-.18-4.61-2.69-4.82-2.69-.23-5.8-.15-8.15.99-5.09,2.46-9.86,5.59-14.65,8.63-2.06,1.31-2.09,3.73-.12,5.74,2.33,2.37,4.94,4.47,7.32,6.81,1.64,1.62,2.91,3.67,4.69,5.1,1.18.95,3.15,1.86,4.45,1.54,4.41-1.1,8.75-2.59,12.98-4.29,1.43-.58,2.46-2.19,3.64-3.36,2.18-2.16,4.07-4.74,6.57-6.41,2.68-1.8,5.38-.84,6.64,1.52.95,1.79-.11,5.13-2.17,6.53-1.81,1.24-3.63,2.48-5.55,3.55-1.95,1.09-1.72,2.06-.36,3.51,2.09,2.23,4.45,4.62,7.51,3.19,2.2-1.03,3.76-3.53,5.47-5.49,3.76-4.32,7.26-8.88,11.19-13.03,4.48-4.72,12.05-4.55,16.95.33,1.77,1.77,2.98,4.16,4.2,6.41,1.6,2.95,2.57,3.04,4.61.46,3.6-4.57,7.3-9.07,11.08-13.48,1.83-2.14,5.16-1.57,6.44,1.01,1.68,3.38,3.17,6.84,4.84,10.22.48.97,1.17,1.89,1.94,2.66,1.06,1.07,1.96,1.32,3.13-.29,4.06-5.57,8.4-10.94,12.49-16.49,3.07-4.16,6.76-7.31,11.88-8.55,3.46-.84,5.6,1.37,4.93,4.83-.98,5.09-1.73,10.22-2.58,15.33l1.19.72Zm-132.84,22.4c-.41-.35-.82-.69-1.23-1.04-1.43,1.03-2.86,2.07-4.29,3.1.07.32.14.65.21.97.94.13,2.23.7,2.75.29,1.07-.83,1.73-2.19,2.56-3.32Z"/>
  <path d="m263.19,63.88c-2.11.04-4.37-2-4.36-3.96.01-2.28,1.95-2.63,3.53-2.67,2.06-.04,4.1.81,4.02,3.28-.06,1.83-.96,3.56-3.19,3.35Z"/>
  <path class="cls-1" d="m111.93,106.12c-.83,1.14-1.49,2.5-2.56,3.32-.53.41-1.81-.17-2.75-.29-.07-.32-.14-.65-.21-.97,1.43-1.03,2.86-2.07,4.29-3.1.41.35.82.69,1.23,1.04Z"/>
</svg>