<?xml version="1.0" encoding="UTF-8"?>
<svg id="Layer_1" data-name="Layer 1" xmlns="http://www.w3.org/2000/svg" viewBox="0 0 446.53 155.89">
  <defs>
    <style>
      .cls-1 {
        fill: #fff;
      }
    </style>
  </defs>
  <path class="cls-1" d="m218.02,90.52l-.65-.35c.26-1.12.47-2.26.79-3.37.99-3.42,2.22-6.79,2.91-10.27.22-1.1-.97-2.47-1.52-3.72-1.28.79-2.64,1.49-3.81,2.42-.45.36-.48,1.26-.66,1.93-2.06,7.62-4.32,15.28-11.91,19.3-4.43,2.35-9.28,4.01-14.09,5.5-1.39.43-4.04-.35-4.77-1.45-.67-1.03.11-3.4.84-4.89,2.27-4.61,6.21-7.77,10.22-10.8,2.06-1.56,4.41-2.79,6.29-4.54,1.79-1.67.93-4.28-1.4-4.35-5.58-.16-11.17-.1-16.75.1-5.64.21-11.03,2.98-16.87,1.7-.99-.22-2.14.31-3.23.46-3.17.45-6.33,1.02-9.51,1.21-.71.04-2.09-1.24-2.16-2.01-.28-3.16.08-6.37-.31-9.51-.18-1.48-1.19-3.48-2.39-4.06-1.66-.8-3.35.09-4.85,1.8-5.46,6.24-11.3,12.14-16.85,18.31-1.88,2.1-3.06,1.78-4.85-.09-1.77-1.85-2.78-2.94-.37-5.32,3.63-3.58,7.05-7.5,9.89-11.72,3.61-5.36,6.2-11.2,3.73-18-.89-2.45-2.26-4.62-4.91-4.64-2.95-.03-6.22.14-8.8,1.37-4.84,2.31-9.69,4.96-13.8,8.35-4.79,3.95-8.51,10.04-4.12,16.83,1.95,3.01,4.29,5.77,6.6,8.53,1.02,1.22,1.89,2.37.43,3.61-2.2,1.87-4.46,3.72-6.91,5.22-4.23,2.57-8.69,4.77-12.9,7.36-.88.54-1.84,2.49-1.5,3.1.58,1.06,2.41,2.45,3.25,2.19,2.89-.9,5.9-2.04,8.28-3.85,4.15-3.17,7.84-6.95,11.81-10.37.64-.55,1.97-.95,2.67-.66,4.8,1.96,6.23,6.82,3.37,11.03-3.19,4.7-5.06,9.85-5.56,15.52-.19,2.13.66,3.74,2.53,4.27,1.19.34,2.89,0,3.98-.67,6.95-4.27,10-12.02,8.23-20.3-.55-2.57-.24-4.89,1.83-6.82.87-.81,1.45-1.91,2.21-2.84,4.09-4.95,8.2-9.89,12.3-14.83l1.41.4c.17,2.08.3,4.16.53,6.23.29,2.7-.97,4.05-3.5,4.79-2.76.8-5.41,1.97-8.11,2.96-2.43.9-2.71,2.12-1.11,4.14,2.59,3.28,5.83,3.01,9.29,1.9,2.94-.94,3.26-.61,3.44,2.42.33,5.52.5,11.08,1.36,16.52.31,1.95,2.03,4.18,3.75,5.26,2.01,1.26,4.25.03,5.87-1.8,1.8-2.05,3.56-4.14,5.49-6.06,1.28-1.28,3.13-3.47,4.21-3.2,3.96,1,5.93-1.25,8.09-3.64.79-.87,1.69-1.63,2.85-2.75.06.93.11,1.41.11,1.88.11,5.55,2.69,8.58,8.18,7.77,5.01-.74,9.92-2.72,14.65-4.69,3.12-1.29,5.84-3.52,9.15-5.59-.3,2.13-.94,3.96-.69,5.66.26,1.83.89,4.33,2.21,5.11,1.95,1.14,3.81-.34,5.17-2.36.72-1.07,2.29-1.79,3.62-2.19,2.95-.88,5.97-1.57,9-2.14,5.28-1.01,10.66-1.62,15.88-2.87,4.39-1.05,7.17-.62,8.18,4.51.36,1.84,2.54,2.87,4.68,1.65,1.88-1.08,3.37-2.42,1.84-4.84-1.52-2.42.06-3.62,1.78-4.92.95-.72,1.66-1.75,2.49-2.65-.84-.75-1.68-1.49-2.52-2.24-.78-.69-1.55-1.38-2.33-2.08.73-.57,1.38-1.3,2.2-1.69,1.81-.87,2.19-2.07,1.38-3.86-.73-1.62-1.24-3.35-2.01-4.95-.74-1.53-1.74-2.75-3.73-1.54-1.44.88-3.07,1.51-4.37,2.57-.73.59-1.29,1.79-1.35,2.75-.18,2.85.12,5.74-.19,8.57-.1.96-1.32,2.43-2.22,2.59-4.72.84-9.5,1.33-14.26,1.94-3.96.5-7.92.99-12.66,1.58.71-1.42.91-2.18,1.38-2.71,3.39-3.86,6.8-7.72,10.29-11.5,1.44-1.56,2.43-3.23.75-4.97-1.76-1.83-3.37-.27-4.65.95-3.38,3.24-6.65,6.59-9.95,9.91-.79.8-1.53,1.65-2.29,2.47Z"/>
  <path class="cls-1" d="m310.47,106.62c-1.48.39-2.81.42-3.68,1.08-.73.55-1.5,2.44-1.24,2.69,1.36,1.29,2.92,2.79,4.64,3.16,1.29.28,3.31-.67,4.32-1.73,2.81-2.93,2.21-6.71,1.64-10.28-.33-2.06-.3-3.65,1.07-5.57,1.78-2.5,3.96-3.05,6.7-3.76,5.34-1.38,10.64-1.16,16.03-1.17,2.41,0,4.89-.8,7.19-1.65.98-.36,2.15-1.79,2.14-2.72,0-.76-1.58-2.07-2.55-2.17-3.05-.29-6.15.06-9.21-.15-6.8-.48-13.34.71-19.72,2.81-2.73.9-4.38-.28-4.78-2.56-.76-4.33-1.05-8.75-1.36-13.14-.1-1.46.62-2.99.48-4.44-.26-2.73-2.43-3.78-4.41-1.93-1.22,1.14-1.61,3.22-2.22,4.94-.82,2.31-.76,5.51-2.34,6.86-5.04,4.3-10.63,7.97-16.08,11.77-.74.52-2.15.9-2.82.54-3.86-2.05-7.68-4.21-11.35-6.58-2.23-1.44-1.57-2.88.62-3.86,3.27-1.47,6.38-3.29,10.25-3.01,1.06.08,3.09-1.15,3.15-1.9.1-1.22-.81-2.81-1.78-3.73-.59-.56-2.23-.52-3.16-.16-4.34,1.7-8.81,3.25-12.85,5.53-5.27,2.97-5.25,8.01-.28,11.65,2.17,1.59,4.43,3.1,6.81,4.32,2.51,1.28,1.96,2.24.08,3.46-2.42,1.57-5.07,2.91-7.12,4.87-1.14,1.08-1.26,3.22-1.85,4.88,1.67.57,3.5,1.9,4.99,1.59,5.24-1.08,10.47-2.42,15.49-4.24,5.7-2.07,6.26-4.39,2.78-9.54,3.71-2.48,7.42-4.95,11.13-7.45,1.46-.98,2.89-2,4.33-3,.47,1.76.78,3.58,1.45,5.26.91,2.28.18,3.48-1.94,4.5-1.77.85-3.66,1.9-4.85,3.37-.84,1.05-1.34,3.48-.71,4.37,1.16,1.6,3.06.71,4.5-.45.86-.69,1.71-1.38,2.61-2,1.67-1.14,2.81-.28,3.08,1.32.46,2.74.57,5.55.83,8.24Z"/>
  <path class="cls-1" d="m257.23,64.38c.04-2.22-1.69-4.34-3.58-4.39-1.76-.05-4.86,2.82-4.96,4.6-.09,1.49,2.79,4.14,4.59,4.23,2.12.11,3.9-1.89,3.95-4.43Z"/>
  <path d="m218.02,90.52c.76-.83,1.5-1.68,2.29-2.47,3.3-3.32,6.57-6.67,9.95-9.91,1.27-1.22,2.89-2.77,4.65-.95,1.68,1.74.69,3.41-.75,4.97-3.49,3.78-6.89,7.63-10.29,11.5-.47.53-.67,1.29-1.38,2.71,4.74-.59,8.7-1.08,12.66-1.58,4.76-.6,9.54-1.1,14.26-1.94.9-.16,2.12-1.62,2.22-2.59.3-2.83,0-5.72.19-8.57.06-.96.62-2.16,1.35-2.75,1.3-1.05,2.93-1.68,4.37-2.57,1.98-1.21,2.99,0,3.73,1.54.77,1.6,1.28,3.33,2.01,4.95.8,1.79.43,2.99-1.38,3.86-.81.39-1.47,1.12-2.2,1.69.78.69,1.55,1.39,2.33,2.08.84.75,1.68,1.49,2.52,2.24-.82.89-1.53,1.93-2.49,2.65-1.72,1.3-3.3,2.5-1.78,4.92,1.53,2.42.04,3.77-1.84,4.84-2.14,1.22-4.32.19-4.68-1.65-1.01-5.13-3.79-5.56-8.18-4.51-5.22,1.25-10.59,1.87-15.88,2.87-3.03.58-6.05,1.26-9,2.14-1.33.4-2.9,1.12-3.62,2.19-1.36,2.01-3.22,3.5-5.17,2.36-1.31-.77-1.94-3.28-2.21-5.11-.25-1.7.39-3.53.69-5.66-3.31,2.07-6.03,4.3-9.15,5.59-4.73,1.96-9.64,3.95-14.65,4.69-5.48.81-8.07-2.22-8.18-7.77,0-.47-.06-.95-.11-1.88-1.17,1.12-2.07,1.88-2.85,2.75-2.16,2.39-4.13,4.64-8.09,3.64-1.08-.27-2.93,1.92-4.21,3.2-1.93,1.92-3.69,4.01-5.49,6.06-1.61,1.83-3.86,3.06-5.87,1.8-1.72-1.08-3.45-3.32-3.75-5.26-.85-5.45-1.03-11-1.36-16.52-.18-3.03-.51-3.36-3.44-2.42-3.46,1.11-6.7,1.37-9.29-1.9-1.6-2.02-1.32-3.24,1.11-4.14,2.7-1,5.35-2.16,8.11-2.96,2.53-.74,3.79-2.09,3.5-4.79-.22-2.07-.36-4.15-.53-6.23l-1.41-.4c-4.1,4.94-8.21,9.88-12.3,14.83-.77.93-1.35,2.03-2.21,2.84-2.07,1.93-2.38,4.25-1.83,6.82,1.77,8.28-1.28,16.02-8.23,20.3-1.09.67-2.79,1.01-3.98.67-1.87-.53-2.72-2.14-2.53-4.27.49-5.68,2.37-10.82,5.56-15.52,2.85-4.21,1.42-9.07-3.37-11.03-.7-.29-2.03.11-2.67.66-3.98,3.41-7.66,7.2-11.81,10.37-2.38,1.81-5.38,2.95-8.28,3.85-.84.26-2.66-1.13-3.25-2.19-.33-.61.63-2.56,1.5-3.1,4.22-2.59,8.68-4.78,12.9-7.36,2.46-1.5,4.71-3.35,6.91-5.22,1.46-1.24.59-2.39-.43-3.61-2.3-2.76-4.65-5.52-6.6-8.53-4.39-6.79-.67-12.89,4.12-16.83,4.11-3.39,8.96-6.05,13.8-8.35,2.58-1.23,5.85-1.4,8.8-1.37,2.65.03,4.02,2.19,4.91,4.64,2.47,6.8-.12,12.64-3.73,18-2.85,4.22-6.26,8.14-9.89,11.72-2.41,2.38-1.41,3.48.37,5.32,1.79,1.86,2.97,2.18,4.85.09,5.55-6.17,11.39-12.07,16.85-18.31,1.5-1.72,3.19-2.6,4.85-1.8,1.2.58,2.21,2.58,2.39,4.06.38,3.13.03,6.35.31,9.51.07.76,1.45,2.05,2.16,2.01,3.18-.19,6.34-.76,9.51-1.21,1.08-.15,2.23-.68,3.23-.46,5.84,1.29,11.23-1.49,16.87-1.7,5.58-.21,11.17-.27,16.75-.1,2.33.07,3.19,2.68,1.4,4.35-1.88,1.75-4.23,2.98-6.29,4.54-4,3.03-7.94,6.19-10.22,10.8-.73,1.49-1.51,3.86-.84,4.89.73,1.11,3.37,1.88,4.77,1.45,4.81-1.48,9.66-3.14,14.09-5.5,7.58-4.02,9.84-11.68,11.91-19.3.18-.67.21-1.57.66-1.93,1.16-.94,2.52-1.63,3.81-2.42.54,1.25,1.73,2.62,1.52,3.72-.69,3.48-1.93,6.85-2.91,10.27-.32,1.11-.53,2.25-.79,3.37l.65.35Zm-86.62-33.9c.01-6.18-1.77-8.09-5.87-6.93-5.9,1.67-11.39,4.36-15.67,8.96-2.32,2.5-3.14,5.37-1.09,8.43,1.94,2.88,4.08,5.63,6.1,8.46,1.51,2.13,2.9,1.56,4.39-.04,1.53-1.63,3.25-3.08,4.7-4.77,3.87-4.49,6.84-9.45,7.43-14.11Zm20.97,41.13c-.15.01-.3.03-.45.04.29,2.79.51,5.59.89,8.37.12.9.47,2.3,1.04,2.48.74.24,2.06-.25,2.65-.88,1.78-1.88,3.78-3.76,4.86-6.03,2.46-5.16,4.49-10.53,6.56-15.87.73-1.88-.91-3.37-3.1-2.97-2.54.47-5.06,1.03-7.6,1.5-3.23.59-5.76,3.67-5.48,6.76.2,2.2.42,4.4.63,6.61Zm37.72-15.87c-.12-.35-.23-.7-.35-1.06-3.94.67-7.89,1.27-11.81,2.02-2.05.39-2.25,1.22-1.28,3.33,1.38,2.99,1.86,6.39,2.52,8.83,3.18-3.82,7.05-8.48,10.92-13.13Zm-70.15,26.41c3.69-1.89,4.8-5.08,3.1-8.58-1.15,3.19-2.13,5.88-3.1,8.58Z"/>
  <path d="m310.47,106.62c-.25-2.69-.36-5.49-.83-8.24-.27-1.6-1.4-2.45-3.08-1.32-.91.62-1.76,1.31-2.61,2-1.44,1.16-3.34,2.05-4.5.45-.64-.88-.14-3.32.71-4.37,1.19-1.48,3.08-2.53,4.85-3.37,2.12-1.01,2.85-2.21,1.94-4.5-.67-1.68-.98-3.5-1.45-5.26-1.44,1-2.88,2.02-4.33,3-3.7,2.49-7.42,4.97-11.13,7.45,3.48,5.15,2.92,7.47-2.78,9.54-5.02,1.82-10.26,3.16-15.49,4.24-1.49.31-3.32-1.01-4.99-1.59.58-1.66.71-3.8,1.85-4.88,2.06-1.96,4.7-3.3,7.12-4.87,1.89-1.22,2.43-2.18-.08-3.46-2.38-1.22-4.64-2.73-6.81-4.32-4.97-3.64-4.99-8.68.28-11.65,4.04-2.28,8.51-3.83,12.85-5.53.93-.37,2.57-.41,3.16.16.97.92,1.88,2.51,1.78,3.73-.06.75-2.09,1.98-3.15,1.9-3.87-.28-6.98,1.54-10.25,3.01-2.19.99-2.85,2.42-.62,3.86,3.67,2.37,7.49,4.54,11.35,6.58.67.36,2.08-.03,2.82-.54,5.45-3.8,11.04-7.47,16.08-11.77,1.58-1.35,1.52-4.55,2.34-6.86.61-1.71,1-3.8,2.22-4.94,1.98-1.85,4.15-.8,4.41,1.93.14,1.45-.58,2.98-.48,4.44.31,4.39.6,8.81,1.36,13.14.4,2.28,2.05,3.46,4.78,2.56,6.39-2.1,12.93-3.29,19.72-2.81,3.06.22,6.16-.13,9.21.15.97.09,2.54,1.4,2.55,2.17,0,.93-1.16,2.36-2.14,2.72-2.3.85-4.78,1.64-7.19,1.65-5.38,0-10.68-.21-16.03,1.17-2.74.71-4.91,1.26-6.7,3.76-1.37,1.92-1.4,3.51-1.07,5.57.57,3.58,1.17,7.36-1.64,10.28-1.01,1.06-3.03,2.01-4.32,1.73-1.72-.37-3.28-1.86-4.64-3.16-.26-.24.51-2.13,1.24-2.69.87-.66,2.2-.69,3.68-1.08Z"/>
  <path d="m257.23,64.38c-.05,2.54-1.82,4.53-3.95,4.43-1.8-.09-4.68-2.73-4.59-4.23.1-1.77,3.2-4.65,4.96-4.6,1.89.05,3.62,2.18,3.58,4.39Z"/>
  <path class="cls-1" d="m131.39,56.62c-.59,4.66-3.56,9.62-7.43,14.11-1.45,1.69-3.18,3.14-4.7,4.77-1.5,1.6-2.88,2.17-4.39.04-2.01-2.83-4.16-5.58-6.1-8.46-2.06-3.06-1.24-5.93,1.09-8.43,4.28-4.6,9.76-7.29,15.67-8.96,4.11-1.16,5.88.76,5.87,6.93Z"/>
  <path class="cls-1" d="m152.36,97.75c-.21-2.2-.44-4.4-.63-6.61-.27-3.09,2.26-6.16,5.48-6.76,2.54-.47,5.06-1.03,7.6-1.5,2.19-.41,3.83,1.08,3.1,2.97-2.07,5.34-4.1,10.71-6.56,15.87-1.08,2.27-3.09,4.15-4.86,6.03-.59.63-1.92,1.12-2.65.88-.56-.18-.91-1.58-1.04-2.48-.38-2.78-.61-5.58-.89-8.37.15-.01.3-.03.45-.04Z"/>
  <path class="cls-1" d="m190.08,81.88c-3.87,4.65-7.74,9.31-10.92,13.13-.66-2.44-1.14-5.84-2.52-8.83-.97-2.11-.76-2.94,1.28-3.33,3.92-.75,7.87-1.36,11.81-2.02.12.35.23.7.35,1.06Z"/>
  <path class="cls-1" d="m119.93,108.29c.97-2.7,1.95-5.39,3.1-8.58,1.7,3.5.59,6.68-3.1,8.58Z"/>
</svg>