<?xml version="1.0" encoding="UTF-8"?>
<svg id="Layer_1" data-name="Layer 1" xmlns="http://www.w3.org/2000/svg" viewBox="0 0 169.1 163.82">
  <defs>
    <style>
      .cls-1 {
        fill: #fff;
      }
    </style>
  </defs>
  <path class="cls-1" d="m81,91.96c-.56,1.05-.61,1.3-.76,1.39-.68.43-1.38.84-2.09,1.23-4.59,2.54-8.91,5.58-11.23,10.34-1.87,3.85-3.19,8.1-4.01,12.32-1.4,7.21-2.17,14.55-3.32,21.82-.21,1.36-.95,2.68,1.09,3.04,1.72.3,3.35.07,3.83-2,.35-1.47.48-2.99.72-4.49,1.03-6.45,1.66-13,3.19-19.34,3.57-14.77,12.04-20.62,26.66-21.19,4.53-.18,8.33,2.24,9.37,6.69,1.57,6.76,2.93,13.66,3.39,20.57.39,5.9-.55,11.9-1.01,17.85-.16,2.11.68,2.97,2.7,3.12,2.55.19,3.17-1.49,3.25-3.43.16-3.76-.09-7.54.22-11.27.71-8.65-.48-17.14-2.03-25.56-.9-4.9-3.58-8.99-7.83-11.82-2.61-1.74-2.69-2.31-.12-4.31,6.54-5.09,13.49-9.72,17.41-17.45,3.47-6.85,4.17-13.76.23-20.54-5.5-9.47-13.76-16.1-23.39-20.97-3.33-1.68-7.23-2.19-10.79-3.47-8.05-2.88-14.98-1.53-21.07,4.67-1.87,1.9-4.35,3.28-6.72,4.59-5.89,3.25-10.95,7.11-13.63,13.67-1.97,4.83-2.59,9.71-2.43,14.82.31,10.09,5.15,17.59,13.16,23.31,6.37,4.56,13.66,5.79,21.27,5.9,1.18.02,2.36.3,3.94.51Z"/>
  <path d="m81,91.96c-1.58-.21-2.75-.49-3.94-.51-7.61-.11-14.9-1.34-21.27-5.9-8.01-5.73-12.85-13.22-13.16-23.31-.16-5.11.46-9.99,2.43-14.82,2.68-6.56,7.74-10.42,13.63-13.67,2.37-1.31,4.86-2.69,6.72-4.59,6.09-6.2,13.02-7.55,21.07-4.67,3.56,1.28,7.46,1.78,10.79,3.47,9.63,4.87,17.89,11.5,23.39,20.97,3.94,6.77,3.24,13.68-.23,20.54-3.92,7.74-10.87,12.37-17.41,17.45-2.57,2-2.48,2.57.12,4.31,4.25,2.83,6.93,6.92,7.83,11.82,1.55,8.43,2.73,16.92,2.03,25.56-.31,3.74-.06,7.52-.22,11.27-.08,1.94-.7,3.61-3.25,3.43-2.02-.15-2.86-1.01-2.7-3.12.46-5.95,1.41-11.95,1.01-17.85-.46-6.91-1.82-13.81-3.39-20.57-1.03-4.45-4.84-6.87-9.37-6.69-14.62.58-23.09,6.43-26.66,21.19-1.53,6.33-2.16,12.88-3.19,19.34-.24,1.5-.37,3.02-.72,4.49-.48,2.06-2.11,2.29-3.83,2-2.04-.35-1.31-1.68-1.09-3.04,1.15-7.27,1.92-14.6,3.32-21.82.82-4.22,2.14-8.46,4.01-12.32,2.31-4.76,6.64-7.8,11.23-10.34.71-.39,1.41-.79,2.09-1.23.15-.09.2-.34.76-1.39Zm-26.67-48.1c-.26-.12-.52-.25-.77-.37-.8.64-1.98,1.11-2.34,1.94-1.31,3.03-2.88,6.1-3.37,9.31-1.69,11.05,1.17,20.46,10.93,26.99,4.65,3.11,9.88,4.6,15.35,5.05,10.13.83,20.24,1.52,28.79-5.9,5.05-4.38,10.52-8.3,13.29-14.72,2.29-5.32,2.63-10.63-.51-15.68-6.03-9.71-14.62-16.33-25.3-20.27-5.35-1.97-10.93-2.79-16.35-.98-3.23,1.08-7.41,2.06-7.11,7.23.04.69-1.79,2.05-2.84,2.13-2.18.18-3.21.97-3.82,3.09-1.59,5.46-.75,7.58,4.24,10.9,1,.66,1.34,2.31,1.98,3.51-1.35.32-2.69.83-4.05.9-.67.03-1.42-.68-2.07-1.15-4.04-2.89-6.38-6.71-6.04-11.95Z"/>
  <path class="cls-1" d="m54.33,43.87c-.34,5.24,2,9.05,6.04,11.95.65.47,1.4,1.18,2.07,1.15,1.36-.07,2.7-.57,4.05-.9-.64-1.19-.98-2.84-1.98-3.51-4.99-3.32-5.82-5.43-4.24-10.9.61-2.12,1.64-2.91,3.82-3.09,1.04-.08,2.88-1.44,2.84-2.13-.29-5.16,3.88-6.15,7.11-7.23,5.41-1.81,11-.99,16.35.98,10.68,3.94,19.27,10.56,25.3,20.27,3.14,5.06,2.81,10.36.51,15.68-2.77,6.42-8.24,10.34-13.29,14.72-8.55,7.41-18.66,6.72-28.79,5.9-5.47-.45-10.7-1.93-15.35-5.05-9.75-6.52-12.61-15.94-10.93-26.99.49-3.21,2.07-6.27,3.37-9.31.36-.83,1.54-1.3,2.34-1.94.26.12.52.25.77.37Zm30.25,35.69c2.16-1.41,4.09-2.36,5.64-3.74,2.18-1.93,4.33-4.01,6-6.37.66-.94,0-2.82-.06-4.27-1.23.28-2.56.36-3.66.91-.84.43-1.38,1.46-2.06,2.21-4.65,5.15-5.47,5.35-11.66,2.82-.56-.23-1.08-.83-1.6-.81-1.1.05-2.65.06-3.15.73-.46.61-.14,2.67.48,3.06,3.1,1.93,6.41,3.52,10.06,5.44Zm-9.84-23.65c-.55.17-2.06.37-3.22,1.12-.47.3-.57,2.28-.13,2.66,1.13.95,2.62,1.9,4.03,1.99,2.3.16,4.89-.72,4.93-3.38.04-2.97-2.77-2.15-5.6-2.4Zm18.41,6.15c.52-.78,2.14-2.33,1.84-2.98-.85-1.82-2.49-3.27-3.82-4.87-1.1,1.02-2.69,1.85-3.17,3.1-.6,1.57,2.51,4.61,5.15,4.74Z"/>
  <path d="m84.58,79.55c-3.65-1.93-6.97-3.51-10.06-5.44-.62-.39-.93-2.45-.48-3.06.5-.67,2.04-.68,3.15-.73.52-.02,1.04.58,1.6.81,6.19,2.53,7.02,2.33,11.66-2.82.68-.75,1.22-1.78,2.06-2.21,1.09-.55,2.43-.63,3.66-.91.06,1.45.72,3.33.06,4.27-1.67,2.36-3.82,4.44-6,6.37-1.55,1.37-3.48,2.33-5.64,3.74Z"/>
  <path d="m74.75,55.91c2.83.25,5.64-.57,5.6,2.4-.03,2.65-2.63,3.53-4.93,3.38-1.41-.1-2.9-1.04-4.03-1.99-.44-.37-.34-2.35.13-2.66,1.16-.75,2.67-.95,3.22-1.12Z"/>
  <path d="m93.16,62.05c-2.64-.14-5.75-3.17-5.15-4.74.48-1.25,2.07-2.08,3.17-3.1,1.33,1.6,2.97,3.05,3.82,4.87.3.65-1.33,2.2-1.84,2.98Z"/>
</svg>