<?xml version="1.0" encoding="UTF-8"?>
<svg id="Layer_1" data-name="Layer 1" xmlns="http://www.w3.org/2000/svg" viewBox="0 0 169.1 163.82">
  <defs>
    <style>
      .cls-1 {
        fill: #fff;
      }
    </style>
  </defs>
  <path class="cls-1" d="m55.54,129.52c.25.09.5.17.75.26-.02.3-.03.61-.06.91-.23,2.03.4,3.87,2.36,4.42,1.12.31,2.83-.19,3.81-.93,1.54-1.17,1.21-2.79.54-4.64-.55-1.51-.4-3.59.17-5.14,2.33-6.34,4.85-12.6,7.47-18.83,2.77-6.6,5.7-13.13,8.62-19.66.94-2.1,2.29-2.49,3.9-.55.58.71,1.22,1.37,1.78,2.09,6.33,8.12,13.58,15.56,18.19,24.95.79,1.62,2.36,2.3,3.98.68,1.64-1.63,2.55-3.4,1.04-5.66-1.01-1.51-1.73-3.24-2.86-4.64-6.71-8.26-13.43-16.52-20.32-24.62-1.53-1.8-2.09-3.34-1.04-5.43,3.91-7.73,7.57-15.6,11.79-23.16,2.25-4.03,5.05-8.02,10.91-7.16.6.09,2.2-1.88,2.12-2.79-.17-1.95-4.77-3.69-6.62-2.6-1.91,1.12-4.1,2.22-5.34,3.92-3.91,5.39-7.63,10.94-11.04,16.66-1.99,3.35-3.16,7.18-4.86,10.72-1.38,2.88-2.28,2.81-4.2.38-4.09-5.17-8.28-10.27-12.52-15.31-1.21-1.44-2.67-2.5-4.67-.78-1.82,1.57-1.7,3.15-.36,4.75,5.12,6.15,10.36,12.19,15.42,18.39.74.91,1.35,2.7.96,3.64-4.62,11.18-9.58,22.22-14.16,33.41-2.23,5.44-3.86,11.13-5.75,16.71Z"/>
  <path d="m55.54,129.52c1.9-5.58,3.53-11.27,5.75-16.71,4.58-11.19,9.54-22.23,14.16-33.41.39-.94-.22-2.73-.96-3.64-5.06-6.2-10.3-12.25-15.42-18.39-1.33-1.6-1.46-3.18.36-4.75,2-1.72,3.46-.66,4.67.78,4.25,5.04,8.43,10.14,12.52,15.31,1.92,2.43,2.82,2.5,4.2-.38,1.7-3.54,2.87-7.37,4.86-10.72,3.41-5.72,7.13-11.27,11.04-16.66,1.24-1.71,3.43-2.81,5.34-3.92,1.86-1.09,6.45.65,6.62,2.6.08.91-1.51,2.88-2.12,2.79-5.87-.86-8.67,3.13-10.91,7.16-4.21,7.56-7.88,15.43-11.79,23.16-1.06,2.09-.5,3.63,1.04,5.43,6.89,8.11,13.61,16.36,20.32,24.62,1.13,1.4,1.85,3.13,2.86,4.64,1.51,2.26.6,4.02-1.04,5.66-1.63,1.62-3.19.94-3.98-.68-4.61-9.39-11.86-16.83-18.19-24.95-.56-.72-1.2-1.38-1.78-2.09-1.6-1.94-2.96-1.55-3.9.55-2.92,6.53-5.85,13.06-8.62,19.66-2.62,6.22-5.14,12.49-7.47,18.83-.57,1.56-.72,3.63-.17,5.14.67,1.85,1,3.47-.54,4.64-.98.74-2.69,1.25-3.81.93-1.96-.55-2.59-2.39-2.36-4.42.03-.3.04-.61.06-.91-.25-.09-.5-.17-.75-.26Z"/>
</svg>